<svg width="1146" height="248" viewBox="0 0 1146 248" fill="none" xmlns="http://www.w3.org/2000/svg">
<path d="M0 163.239V26.4766H143.954C178.425 26.4766 205.907 37.4955 205.907 76.8176C205.907 107.924 186.082 122.551 156.766 125.769L153.099 126.159L163.011 131.181L206.131 163.239H137.437L93.3758 129.109H54.9648V163.239H0ZM54.9648 89.0068H137.759C145.516 89.0068 148.787 87.0077 148.787 80.9863C148.787 73.9654 145.516 72.5514 137.759 72.5514H54.9648V89.0068Z" fill="#EDEDED"/>
<path d="M501.498 105.948L463.856 103.803L433.548 94.0513L452.159 37.2987L482.838 47.05L514.236 67.1621L504.794 31.3504V0H565.459V31.6917L555.968 67.2596L587.365 47.1475L617.673 37.3962L636.284 94.1488L606.001 103.9L568.383 106.045L597.674 129.302L616.657 154.802L567.367 189.663L548.731 164.139L535.226 129.668L521.348 164.504L502.738 189.663L453.795 154.802L472.306 128.863L501.498 105.948Z" fill="#EDEDED"/>
<path d="M648.625 72.5514V26.4766H866.229V72.5514H785.07V163.239H730.006V72.5514H648.625Z" fill="#EDEDED"/>
<path d="M985.055 165.939C948.156 165.939 907.167 160.723 880.974 154.311L888.705 110.966C925.21 119.685 962.657 123.999 1000.22 123.814C1020.39 123.814 1024.06 123.814 1024.06 120.401C1024.06 117.378 1022.23 117.597 1016.92 117.378L942.084 114.94C892.522 113.331 878.471 95.8763 878.471 70.206C878.471 37.2954 909.249 23.6436 975.118 23.6436C1006.57 24.2024 1037.91 27.63 1068.72 33.8825L1059.97 74.204C1027.63 68.4435 994.821 65.6443 961.959 65.8423C933.411 65.8423 930.561 65.2329 930.561 68.8409C930.561 71.8394 932.197 71.8394 939.532 72.0588L1014.37 74.6672C1059.25 76.2518 1076.18 94.3161 1076.18 122.01C1076.23 152.093 1055.21 165.939 985.055 165.939Z" fill="#EDEDED"/>
<path d="M286.471 105.948L248.853 103.803L218.546 94.0513L237.181 37.2987L267.836 47.05L299.234 67.1621L289.742 31.3504V0H350.357V31.6917L340.866 67.2596L372.165 47.05L402.472 37.2987L421.108 94.0513L390.8 103.803L353.182 105.948L382.4 129.302L401.382 154.802L352.092 189.663L333.457 164.139L320.124 129.668L306.247 164.504L287.636 189.663L238.693 154.802L257.254 128.863L286.471 105.948Z" fill="#EDEDED"/>
<path d="M401.481 201.852H238.272V248H401.481V201.852Z" fill="#EDEDED"/>
<path d="M1143.76 17.4293C1140.83 10.5673 1135.3 5.10528 1128.35 2.20672C1124.78 0.749868 1120.96 0 1117.11 0C1113.25 0 1109.43 0.749868 1105.87 2.20672C1098.9 5.09848 1093.36 10.562 1090.43 17.4293C1088.95 20.9434 1088.19 24.7102 1088.19 28.5143C1088.19 32.3185 1088.95 36.0853 1090.43 39.5994C1093.37 46.4581 1098.91 51.914 1105.87 54.8048C1109.43 56.2616 1113.25 57.0115 1117.11 57.0115C1120.96 57.0115 1124.78 56.2616 1128.35 54.8048C1135.29 51.9057 1140.82 46.4518 1143.76 39.5994C1145.24 36.0853 1146 32.3185 1146 28.5143C1146 24.7102 1145.24 20.9434 1143.76 17.4293ZM1135.53 39.0822C1133.66 42.2113 1131.02 44.8215 1127.86 46.6677C1124.59 48.5192 1120.9 49.4937 1117.13 49.4937C1113.37 49.4937 1109.67 48.5192 1106.41 46.6677C1103.23 44.8273 1100.57 42.2165 1098.7 39.0822C1096.83 35.8647 1095.85 32.2217 1095.85 28.5143C1095.85 24.807 1096.83 21.164 1098.7 17.9465C1100.57 14.8068 1103.22 12.1902 1106.41 10.3438C1109.66 8.49197 1113.36 7.51713 1117.11 7.51713C1120.87 7.51713 1124.57 8.49197 1127.82 10.3438C1130.99 12.2008 1133.64 14.8154 1135.51 17.9465C1137.38 21.1623 1138.37 24.806 1138.37 28.5143C1138.37 32.2227 1137.38 35.8664 1135.51 39.0822H1135.53Z" fill="#EDEDED"/>
<path d="M1125.01 30.8881C1126.2 30.2346 1127.22 29.2826 1127.96 28.1216C1128.86 26.6637 1129.32 24.9662 1129.27 23.2447C1129.32 21.5358 1128.88 19.8484 1128.01 18.3856C1127.2 17.0624 1126.04 15.9988 1124.66 15.3177C1123.21 14.5995 1121.62 14.2351 1120.01 14.2536H1106.98V41.3156H1113.97V32.2359H1118.4L1122.53 41.3334H1130.11L1125.01 30.8881ZM1113.91 19.4674H1118.28C1119.21 19.4477 1120.12 19.7476 1120.87 20.3186C1121.25 20.6845 1121.55 21.1348 1121.74 21.6355C1121.93 22.1362 1122.01 22.6743 1121.97 23.2093C1122.01 23.7491 1121.93 24.2911 1121.74 24.7968C1121.55 25.3025 1121.25 25.7595 1120.87 26.1354C1120.15 26.7888 1119.21 27.1433 1118.25 27.1285H1113.91V19.4674Z" fill="#EDEDED"/>
</svg>
