<svg width="56" height="40" viewBox="0 0 56 40" fill="none" xmlns="http://www.w3.org/2000/svg">
<path d="M0 0V40H56V0H0ZM37.7938 10.8383H32.8936V34.923H26.3775V10.8513H22.1843C22.2495 11.3401 22.3472 11.8289 22.3765 12.3079C22.5326 14.1761 22.0614 16.0429 21.0375 17.613C20.4282 18.5255 19.6658 19.2619 18.5906 19.5454C20.9039 20.2688 22.0181 21.9796 22.4091 24.2705C22.4628 24.6405 22.4857 25.0144 22.4775 25.3882C22.4775 27.3434 22.5036 29.279 22.4775 31.2244C22.4349 32.4627 22.8345 33.6757 23.6048 34.646C23.6602 34.721 23.7124 34.7992 23.7645 34.8741C23.7645 34.8741 23.7645 34.8904 23.7645 34.923C23.6961 34.923 23.6244 34.923 23.5527 34.923C21.6467 34.923 19.7407 34.923 17.8348 34.923C17.6854 34.9167 17.5428 34.8591 17.4308 34.7601C16.8121 34.1556 16.4405 33.3425 16.3882 32.479C16.3588 32.176 16.3588 31.8729 16.3556 31.5699C16.3556 29.1715 16.3556 26.7764 16.3556 24.378C16.3636 24.0139 16.3186 23.6505 16.222 23.2994C16.087 22.844 15.821 22.4383 15.4572 22.1329C15.0934 21.8276 14.6478 21.636 14.1759 21.5821C13.6916 21.5249 13.2036 21.5053 12.7163 21.5234C12.5827 21.5234 12.5371 21.5886 12.5501 21.7124C12.5501 21.7613 12.5501 21.8069 12.5501 21.8525V34.9165H5.9232V5.76456C5.9232 5.46151 5.9232 5.46151 6.22946 5.46151C9.37894 5.46151 12.5284 5.46151 15.6779 5.46151C18.0074 5.46151 19.8417 6.39348 21.0766 8.41059C21.0961 8.43992 21.1189 8.46599 21.1776 8.5442C21.1776 8.41059 21.1776 8.32912 21.1776 8.24766C21.1776 7.40041 21.1776 6.55316 21.1776 5.70591C21.1776 5.51039 21.2362 5.45499 21.4284 5.45499C26.8043 5.45499 32.179 5.45499 37.5527 5.45499C37.6211 5.45499 37.6895 5.45499 37.7775 5.45499L37.7938 10.8383ZM50.3765 34.9002H38.4161V5.45825H38.667C40.6023 5.45825 42.5376 5.45825 44.4761 5.45825C44.7237 5.45825 44.7661 5.53645 44.7661 5.7613C44.7661 13.6733 44.7661 21.5853 44.7661 29.4974V29.8558H50.3863L50.3765 34.9002Z" fill="black"/>
<path d="M16.1699 15.094C16.0493 15.6305 15.7623 16.1151 15.3497 16.4786C14.9372 16.842 14.4203 17.0657 13.8729 17.1176C13.4689 17.1828 13.0584 17.1926 12.6284 17.2317V10.2223C13.4035 10.1759 14.1789 10.3109 14.8927 10.6166C15.2663 10.7966 15.5879 11.0688 15.8273 11.4074C16.0667 11.746 16.216 12.14 16.2611 12.5523C16.4152 13.3961 16.384 14.2634 16.1699 15.094Z" fill="black"/>
</svg>
