<svg width="39" height="40" viewBox="0 0 39 40" fill="none" xmlns="http://www.w3.org/2000/svg">
<path d="M19.5 0C8.73009 0 0 8.95394 0 20C0 31.0461 8.73009 40 19.5 40C30.2699 40 39 31.0461 39 20C39 8.95531 30.2699 0.00136472 19.5 0ZM28.443 28.8448C28.093 29.4343 27.3439 29.6186 26.7717 29.2596C22.1931 26.3896 16.429 25.7414 9.64155 27.3313C8.9869 27.4855 8.3349 27.0652 8.18587 26.3937C8.03552 25.7223 8.44401 25.0536 9.1 24.9007C16.5274 23.1607 22.8997 23.9099 28.0398 27.1307C28.612 27.4923 28.7943 28.2579 28.443 28.8448ZM30.8288 23.4009C30.3883 24.1351 29.4516 24.3644 28.7371 23.914C23.4971 20.61 15.5055 19.6534 9.30624 21.5831C8.50256 21.8328 7.65363 21.3675 7.4088 20.5445C7.16663 19.7202 7.62037 18.8509 8.42272 18.5998C15.5042 16.3958 24.3088 17.463 30.3271 21.2569C31.043 21.7086 31.2692 22.668 30.8288 23.4009ZM31.0337 17.7291C24.7479 13.9011 14.3798 13.549 8.37881 15.4159C7.41546 15.7161 6.39621 15.158 6.10481 14.1699C5.81341 13.1818 6.35629 12.1365 7.32098 11.8362C14.2095 9.69226 25.6594 10.1058 32.8952 14.5111C33.7614 15.0392 34.0462 16.187 33.5325 17.074C33.0203 17.9638 31.8986 18.2572 31.0337 17.7291Z" fill="black"/>
</svg>
