<svg width="1440" height="270" viewBox="0 0 1440 270" fill="none" xmlns="http://www.w3.org/2000/svg">
<g clip-path="url(#clip0_450_425)">
<path d="M-11.9094 231.06L-9.84429 229.428L-12.4721 229.277L-30.0603 228.266L-43.2589 223.987L-35.1009 198.955L-21.7372 203.238L-7.06101 212.71L-4.8962 214.108L-5.55164 211.616L-9.98882 194.747V181H16.5588V194.908L12.1221 211.66L11.4572 214.171L13.6341 212.755L28.2638 203.237L41.4618 198.958L49.6189 223.987L36.4203 228.266L18.832 229.277L16.2404 229.426L18.2621 231.054L31.922 242.055L40.1809 253.234L18.6035 268.61L10.4857 257.407L4.2536 241.172L3.33378 238.776L2.39007 241.163L-4.09828 257.574L-12.2015 268.611L-33.6399 253.225L-25.5573 241.845L-11.9094 231.06Z" stroke="#6F74D8" stroke-opacity="0.5" stroke-width="2"/>
<path d="M83.4907 231.06L85.5559 229.428L82.9281 229.277L65.3398 228.266L52.1413 223.987L60.2993 198.955L73.6629 203.238L88.3391 212.71L90.5039 214.108L89.8485 211.616L85.4113 194.747V181H111.959V194.908L107.522 211.66L106.857 214.171L109.034 212.755L123.664 203.237L136.862 198.958L145.019 223.987L131.82 228.266L114.232 229.277L111.641 229.426L113.662 231.054L127.322 242.055L135.581 253.234L114.004 268.61L105.886 257.407L99.6538 241.172L98.7339 238.776L97.7902 241.163L91.3019 257.574L83.1987 268.611L61.7603 253.225L69.8428 241.845L83.4907 231.06Z" stroke="#6F74D8" stroke-opacity="0.5" stroke-width="2"/>
<path d="M178.891 231.06L180.956 229.428L178.328 229.277L160.74 228.266L147.541 223.987L155.699 198.955L169.063 203.238L183.739 212.71L185.904 214.108L185.248 211.616L180.811 194.747V181H207.359V194.908L202.922 211.66L202.257 214.171L204.434 212.755L219.064 203.237L232.262 198.958L240.419 223.987L227.22 228.266L209.632 229.277L207.04 229.426L209.062 231.054L222.722 242.055L230.981 253.234L209.404 268.61L201.286 257.407L195.054 241.172L194.134 238.776L193.19 241.163L186.702 257.574L178.599 268.611L157.16 253.225L165.243 241.845L178.891 231.06Z" stroke="#6F74D8" stroke-opacity="0.5" stroke-width="2"/>
<path d="M274.291 231.06L276.356 229.428L273.728 229.277L256.14 228.266L242.941 223.987L251.099 198.955L264.463 203.238L279.139 212.71L281.304 214.108L280.649 211.616L276.211 194.747V181H302.759V194.908L298.322 211.66L297.657 214.171L299.834 212.755L314.464 203.237L327.662 198.958L335.819 223.987L322.62 228.266L305.032 229.277L302.441 229.426L304.462 231.054L318.122 242.055L326.381 253.234L304.804 268.61L296.686 257.407L290.454 241.172L289.534 238.776L288.59 241.163L282.102 257.574L273.999 268.611L252.56 253.225L260.643 241.845L274.291 231.06Z" stroke="#6F74D8" stroke-opacity="0.5" stroke-width="2"/>
<path d="M369.691 231.06L371.756 229.428L369.128 229.277L351.54 228.266L338.341 223.987L346.499 198.955L359.863 203.238L374.539 212.71L376.704 214.108L376.048 211.616L371.611 194.747V181H398.159V194.908L393.722 211.66L393.057 214.171L395.234 212.755L409.864 203.237L423.062 198.958L431.219 223.987L418.02 228.266L400.432 229.277L397.84 229.426L399.862 231.054L413.522 242.055L421.781 253.234L400.204 268.61L392.086 257.407L385.854 241.172L384.934 238.776L383.99 241.163L377.502 257.574L369.399 268.611L347.96 253.225L356.043 241.845L369.691 231.06Z" stroke="#6F74D8" stroke-opacity="0.5" stroke-width="2"/>
<path d="M465.091 231.06L467.156 229.428L464.528 229.277L446.94 228.266L433.741 223.987L441.899 198.955L455.263 203.238L469.939 212.71L472.104 214.108L471.448 211.616L467.011 194.747V181H493.559V194.908L489.122 211.66L488.457 214.171L490.634 212.755L505.264 203.237L518.462 198.958L526.619 223.987L513.42 228.266L495.832 229.277L493.24 229.426L495.262 231.054L508.922 242.055L517.181 253.234L495.603 268.61L487.486 257.407L481.254 241.172L480.334 238.776L479.39 241.163L472.902 257.574L464.799 268.611L443.36 253.225L451.443 241.845L465.091 231.06Z" stroke="#6F74D8" stroke-opacity="0.5" stroke-width="2"/>
<path d="M560.491 231.06L562.556 229.428L559.928 229.277L542.34 228.266L529.141 223.987L537.299 198.955L550.663 203.238L565.339 212.71L567.504 214.108L566.848 211.616L562.411 194.747V181H588.959V194.908L584.522 211.66L583.857 214.171L586.034 212.755L600.664 203.237L613.862 198.958L622.019 223.987L608.82 228.266L591.232 229.277L588.64 229.426L590.662 231.054L604.322 242.055L612.581 253.234L591.003 268.61L582.886 257.407L576.654 241.172L575.734 238.776L574.79 241.163L568.302 257.574L560.198 268.611L538.76 253.225L546.843 241.845L560.491 231.06Z" stroke="#6F74D8" stroke-opacity="0.5" stroke-width="2"/>
<path d="M655.891 231.06L657.956 229.428L655.328 229.277L637.74 228.266L624.541 223.987L632.699 198.955L646.063 203.238L660.739 212.71L662.904 214.108L662.248 211.616L657.811 194.747V181H684.359V194.908L679.922 211.66L679.257 214.171L681.434 212.755L696.064 203.237L709.262 198.958L717.419 223.987L704.22 228.266L686.632 229.277L684.04 229.426L686.062 231.054L699.722 242.055L707.981 253.234L686.404 268.61L678.286 257.407L672.054 241.172L671.134 238.776L670.19 241.163L663.702 257.574L655.599 268.611L634.16 253.225L642.243 241.845L655.891 231.06Z" stroke="#6F74D8" stroke-opacity="0.5" stroke-width="2"/>
<path d="M751.291 231.06L753.356 229.428L750.728 229.277L733.14 228.266L719.941 223.987L728.099 198.955L741.463 203.238L756.139 212.71L758.304 214.108L757.649 211.616L753.211 194.747V181H779.759V194.908L775.322 211.66L774.657 214.171L776.834 212.755L791.464 203.237L804.662 198.958L812.819 223.987L799.62 228.266L782.032 229.277L779.441 229.426L781.462 231.054L795.122 242.055L803.381 253.234L781.804 268.61L773.686 257.407L767.454 241.172L766.534 238.776L765.59 241.163L759.102 257.574L750.999 268.611L729.56 253.225L737.643 241.845L751.291 231.06Z" stroke="#6F74D8" stroke-opacity="0.5" stroke-width="2"/>
<path d="M846.691 231.06L848.756 229.428L846.128 229.277L828.54 228.266L815.341 223.987L823.499 198.955L836.863 203.238L851.539 212.71L853.704 214.108L853.048 211.616L848.611 194.747V181H875.159V194.908L870.722 211.66L870.057 214.171L872.234 212.755L886.864 203.237L900.062 198.958L908.219 223.987L895.02 228.266L877.432 229.277L874.84 229.426L876.862 231.054L890.522 242.055L898.781 253.234L877.204 268.61L869.086 257.407L862.854 241.172L861.934 238.776L860.99 241.163L854.502 257.574L846.399 268.611L824.96 253.225L833.043 241.845L846.691 231.06Z" stroke="#6F74D8" stroke-opacity="0.5" stroke-width="2"/>
<path d="M942.091 231.06L944.156 229.428L941.528 229.277L923.94 228.266L910.741 223.987L918.899 198.955L932.263 203.238L946.939 212.71L949.104 214.108L948.448 211.616L944.011 194.747V181H970.559V194.908L966.122 211.66L965.457 214.171L967.634 212.755L982.264 203.237L995.462 198.958L1003.62 223.987L990.42 228.266L972.832 229.277L970.24 229.426L972.262 231.054L985.922 242.055L994.181 253.234L972.603 268.61L964.486 257.407L958.254 241.172L957.334 238.776L956.39 241.163L949.902 257.574L941.799 268.611L920.36 253.225L928.443 241.845L942.091 231.06Z" stroke="#6F74D8" stroke-opacity="0.5" stroke-width="2"/>
<path d="M1037.49 231.06L1039.56 229.428L1036.93 229.277L1019.34 228.266L1006.14 223.987L1014.3 198.955L1027.66 203.238L1042.34 212.71L1044.5 214.108L1043.85 211.616L1039.41 194.747V181H1065.96V194.908L1061.52 211.66L1060.86 214.171L1063.03 212.755L1077.66 203.237L1090.86 198.958L1099.02 223.987L1085.82 228.266L1068.23 229.277L1065.64 229.426L1067.66 231.054L1081.32 242.055L1089.58 253.234L1068 268.61L1059.89 257.407L1053.65 241.172L1052.73 238.776L1051.79 241.163L1045.3 257.574L1037.2 268.611L1015.76 253.225L1023.84 241.845L1037.49 231.06Z" stroke="#6F74D8" stroke-opacity="0.5" stroke-width="2"/>
<path d="M1132.89 231.06L1134.96 229.428L1132.33 229.277L1114.74 228.266L1101.54 223.987L1109.7 198.955L1123.06 203.238L1137.74 212.71L1139.9 214.108L1139.25 211.616L1134.81 194.747V181H1161.36V194.908L1156.92 211.66L1156.26 214.171L1158.43 212.755L1173.06 203.237L1186.26 198.958L1194.42 223.987L1181.22 228.266L1163.63 229.277L1161.04 229.426L1163.06 231.054L1176.72 242.055L1184.98 253.234L1163.4 268.61L1155.29 257.407L1149.05 241.172L1148.13 238.776L1147.19 241.163L1140.7 257.574L1132.6 268.611L1111.16 253.225L1119.24 241.845L1132.89 231.06Z" stroke="#6F74D8" stroke-opacity="0.5" stroke-width="2"/>
<path d="M1228.29 231.06L1230.36 229.428L1227.73 229.277L1210.14 228.266L1196.94 223.987L1205.1 198.955L1218.46 203.238L1233.14 212.71L1235.3 214.108L1234.65 211.616L1230.21 194.747V181H1256.76V194.908L1252.32 211.66L1251.66 214.171L1253.83 212.755L1268.46 203.237L1281.66 198.958L1289.82 223.987L1276.62 228.266L1259.03 229.277L1256.44 229.426L1258.46 231.054L1272.12 242.055L1280.38 253.234L1258.8 268.61L1250.69 257.407L1244.45 241.172L1243.53 238.776L1242.59 241.163L1236.1 257.574L1228 268.611L1206.56 253.225L1214.64 241.845L1228.29 231.06Z" stroke="#6F74D8" stroke-opacity="0.5" stroke-width="2"/>
<path d="M1323.69 231.06L1325.76 229.428L1323.13 229.277L1305.54 228.266L1292.34 223.987L1300.5 198.955L1313.86 203.238L1328.54 212.71L1330.7 214.108L1330.05 211.616L1325.61 194.747V181H1352.16V194.908L1347.72 211.66L1347.06 214.171L1349.23 212.755L1363.86 203.237L1377.06 198.958L1385.22 223.987L1372.02 228.266L1354.43 229.277L1351.84 229.426L1353.86 231.054L1367.52 242.055L1375.78 253.234L1354.2 268.61L1346.09 257.407L1339.85 241.172L1338.93 238.776L1337.99 241.163L1331.5 257.574L1323.4 268.611L1301.96 253.225L1310.04 241.845L1323.69 231.06Z" stroke="#6F74D8" stroke-opacity="0.5" stroke-width="2"/>
<path d="M1419.09 231.06L1421.16 229.428L1418.53 229.277L1400.94 228.266L1387.74 223.987L1395.9 198.955L1409.26 203.238L1423.94 212.71L1426.1 214.108L1425.45 211.616L1421.01 194.747V181H1447.56V194.908L1443.12 211.66L1442.46 214.171L1444.63 212.755L1459.26 203.237L1472.46 198.958L1480.62 223.987L1467.42 228.266L1449.83 229.277L1447.24 229.426L1449.26 231.054L1462.92 242.055L1471.18 253.234L1449.6 268.61L1441.49 257.407L1435.25 241.172L1434.33 238.776L1433.39 241.163L1426.9 257.574L1418.8 268.611L1397.36 253.225L1405.44 241.845L1419.09 231.06Z" stroke="#6F74D8" stroke-opacity="0.5" stroke-width="2"/>
<path d="M-11.9094 51.0597L-9.84429 49.4277L-12.4721 49.2767L-30.0603 48.2661L-43.2589 43.9874L-35.1009 18.9552L-21.7372 23.2384L-7.06101 32.7104L-4.8962 34.1075L-5.55164 31.6158L-9.98882 14.7473V1H16.5588V14.9084L12.1221 31.6604L11.4572 34.1709L13.6341 32.7547L28.2638 23.2369L41.4618 18.9584L49.6189 43.9874L36.4203 48.2661L18.832 49.2767L16.2404 49.4256L18.2621 51.0539L31.922 62.0552L40.1809 73.2336L18.6035 88.6099L10.4857 77.4075L4.2536 61.1725L3.33378 58.7763L2.39007 61.1632L-4.09828 77.574L-12.2015 88.6108L-33.6399 73.2253L-25.5573 61.8449L-11.9094 51.0597Z" stroke="#6F74D8" stroke-opacity="0.5" stroke-width="2"/>
<path d="M83.4907 51.0597L85.5559 49.4277L82.9281 49.2767L65.3398 48.2661L52.1413 43.9874L60.2993 18.9552L73.6629 23.2384L88.3391 32.7104L90.5039 34.1075L89.8485 31.6158L85.4113 14.7473V1H111.959V14.9084L107.522 31.6604L106.857 34.1709L109.034 32.7547L123.664 23.2369L136.862 18.9584L145.019 43.9874L131.82 48.2661L114.232 49.2767L111.641 49.4256L113.662 51.0539L127.322 62.0552L135.581 73.2336L114.004 88.6099L105.886 77.4075L99.6538 61.1725L98.7339 58.7763L97.7902 61.1632L91.3019 77.574L83.1987 88.6108L61.7603 73.2253L69.8428 61.8449L83.4907 51.0597Z" stroke="#6F74D8" stroke-opacity="0.5" stroke-width="2"/>
<path d="M178.891 51.0597L180.956 49.4277L178.328 49.2767L160.74 48.2661L147.541 43.9874L155.699 18.9552L169.063 23.2384L183.739 32.7104L185.904 34.1075L185.248 31.6158L180.811 14.7473V1H207.359V14.9084L202.922 31.6604L202.257 34.1709L204.434 32.7547L219.064 23.2369L232.262 18.9584L240.419 43.9874L227.22 48.2661L209.632 49.2767L207.04 49.4256L209.062 51.0539L222.722 62.0552L230.981 73.2336L209.404 88.6099L201.286 77.4075L195.054 61.1725L194.134 58.7763L193.19 61.1632L186.702 77.574L178.599 88.6108L157.16 73.2253L165.243 61.8449L178.891 51.0597Z" stroke="#6F74D8" stroke-opacity="0.5" stroke-width="2"/>
<path d="M274.291 51.0597L276.356 49.4277L273.728 49.2767L256.14 48.2661L242.941 43.9874L251.099 18.9552L264.463 23.2384L279.139 32.7104L281.304 34.1075L280.649 31.6158L276.211 14.7473V1H302.759V14.9084L298.322 31.6604L297.657 34.1709L299.834 32.7547L314.464 23.2369L327.662 18.9584L335.819 43.9874L322.62 48.2661L305.032 49.2767L302.441 49.4256L304.462 51.0539L318.122 62.0552L326.381 73.2336L304.804 88.6099L296.686 77.4075L290.454 61.1725L289.534 58.7763L288.59 61.1632L282.102 77.574L273.999 88.6108L252.56 73.2253L260.643 61.8449L274.291 51.0597Z" stroke="#6F74D8" stroke-opacity="0.5" stroke-width="2"/>
<path d="M369.691 51.0597L371.756 49.4277L369.128 49.2767L351.54 48.2661L338.341 43.9874L346.499 18.9552L359.863 23.2384L374.539 32.7104L376.704 34.1075L376.048 31.6158L371.611 14.7473V1H398.159V14.9084L393.722 31.6604L393.057 34.1709L395.234 32.7547L409.864 23.2369L423.062 18.9584L431.219 43.9874L418.02 48.2661L400.432 49.2767L397.84 49.4256L399.862 51.0539L413.522 62.0552L421.781 73.2336L400.204 88.6099L392.086 77.4075L385.854 61.1725L384.934 58.7763L383.99 61.1632L377.502 77.574L369.399 88.6108L347.96 73.2253L356.043 61.8449L369.691 51.0597Z" stroke="#6F74D8" stroke-opacity="0.5" stroke-width="2"/>
<path d="M465.091 51.0597L467.156 49.4277L464.528 49.2767L446.94 48.2661L433.741 43.9874L441.899 18.9552L455.263 23.2384L469.939 32.7104L472.104 34.1075L471.448 31.6158L467.011 14.7473V1H493.559V14.9084L489.122 31.6604L488.457 34.1709L490.634 32.7547L505.264 23.2369L518.462 18.9584L526.619 43.9874L513.42 48.2661L495.832 49.2767L493.24 49.4256L495.262 51.0539L508.922 62.0552L517.181 73.2336L495.603 88.6099L487.486 77.4075L481.254 61.1725L480.334 58.7763L479.39 61.1632L472.902 77.574L464.799 88.6108L443.36 73.2253L451.443 61.8449L465.091 51.0597Z" stroke="#6F74D8" stroke-opacity="0.5" stroke-width="2"/>
<path d="M560.491 51.0597L562.556 49.4277L559.928 49.2767L542.34 48.2661L529.141 43.9874L537.299 18.9552L550.663 23.2384L565.339 32.7104L567.504 34.1075L566.848 31.6158L562.411 14.7473V1H588.959V14.9084L584.522 31.6604L583.857 34.1709L586.034 32.7547L600.664 23.2369L613.862 18.9584L622.019 43.9874L608.82 48.2661L591.232 49.2767L588.64 49.4256L590.662 51.0539L604.322 62.0552L612.581 73.2336L591.003 88.6099L582.886 77.4075L576.654 61.1725L575.734 58.7763L574.79 61.1632L568.302 77.574L560.198 88.6108L538.76 73.2253L546.843 61.8449L560.491 51.0597Z" stroke="#6F74D8" stroke-opacity="0.5" stroke-width="2"/>
<path d="M655.891 51.0597L657.956 49.4277L655.328 49.2767L637.74 48.2661L624.541 43.9874L632.699 18.9552L646.063 23.2384L660.739 32.7104L662.904 34.1075L662.248 31.6158L657.811 14.7473V1H684.359V14.9084L679.922 31.6604L679.257 34.1709L681.434 32.7547L696.064 23.2369L709.262 18.9584L717.419 43.9874L704.22 48.2661L686.632 49.2767L684.04 49.4256L686.062 51.0539L699.722 62.0552L707.981 73.2336L686.404 88.6099L678.286 77.4075L672.054 61.1725L671.134 58.7763L670.19 61.1632L663.702 77.574L655.599 88.6108L634.16 73.2253L642.243 61.8449L655.891 51.0597Z" stroke="#6F74D8" stroke-opacity="0.5" stroke-width="2"/>
<path d="M751.291 51.0597L753.356 49.4277L750.728 49.2767L733.14 48.2661L719.941 43.9874L728.099 18.9552L741.463 23.2384L756.139 32.7104L758.304 34.1075L757.649 31.6158L753.211 14.7473V1H779.759V14.9084L775.322 31.6604L774.657 34.1709L776.834 32.7547L791.464 23.2369L804.662 18.9584L812.819 43.9874L799.62 48.2661L782.032 49.2767L779.441 49.4256L781.462 51.0539L795.122 62.0552L803.381 73.2336L781.804 88.6099L773.686 77.4075L767.454 61.1725L766.534 58.7763L765.59 61.1632L759.102 77.574L750.999 88.6108L729.56 73.2253L737.643 61.8449L751.291 51.0597Z" stroke="#6F74D8" stroke-opacity="0.5" stroke-width="2"/>
<path d="M846.691 51.0597L848.756 49.4277L846.128 49.2767L828.54 48.2661L815.341 43.9874L823.499 18.9552L836.863 23.2384L851.539 32.7104L853.704 34.1075L853.048 31.6158L848.611 14.7473V1H875.159V14.9084L870.722 31.6604L870.057 34.1709L872.234 32.7547L886.864 23.2369L900.062 18.9584L908.219 43.9874L895.02 48.2661L877.432 49.2767L874.84 49.4256L876.862 51.0539L890.522 62.0552L898.781 73.2336L877.204 88.6099L869.086 77.4075L862.854 61.1725L861.934 58.7763L860.99 61.1632L854.502 77.574L846.399 88.6108L824.96 73.2253L833.043 61.8449L846.691 51.0597Z" stroke="#6F74D8" stroke-opacity="0.5" stroke-width="2"/>
<path d="M942.091 51.0597L944.156 49.4277L941.528 49.2767L923.94 48.2661L910.741 43.9874L918.899 18.9552L932.263 23.2384L946.939 32.7104L949.104 34.1075L948.448 31.6158L944.011 14.7473V1H970.559V14.9084L966.122 31.6604L965.457 34.1709L967.634 32.7547L982.264 23.2369L995.462 18.9584L1003.62 43.9874L990.42 48.2661L972.832 49.2767L970.24 49.4256L972.262 51.0539L985.922 62.0552L994.181 73.2336L972.603 88.6099L964.486 77.4075L958.254 61.1725L957.334 58.7763L956.39 61.1632L949.902 77.574L941.799 88.6108L920.36 73.2253L928.443 61.8449L942.091 51.0597Z" stroke="#6F74D8" stroke-opacity="0.5" stroke-width="2"/>
<path d="M1037.49 51.0597L1039.56 49.4277L1036.93 49.2767L1019.34 48.2661L1006.14 43.9874L1014.3 18.9552L1027.66 23.2384L1042.34 32.7104L1044.5 34.1075L1043.85 31.6158L1039.41 14.7473V1H1065.96V14.9084L1061.52 31.6604L1060.86 34.1709L1063.03 32.7547L1077.66 23.2369L1090.86 18.9584L1099.02 43.9874L1085.82 48.2661L1068.23 49.2767L1065.64 49.4256L1067.66 51.0539L1081.32 62.0552L1089.58 73.2336L1068 88.6099L1059.89 77.4075L1053.65 61.1725L1052.73 58.7763L1051.79 61.1632L1045.3 77.574L1037.2 88.6108L1015.76 73.2253L1023.84 61.8449L1037.49 51.0597Z" stroke="#6F74D8" stroke-opacity="0.5" stroke-width="2"/>
<path d="M1132.89 51.0597L1134.96 49.4277L1132.33 49.2767L1114.74 48.2661L1101.54 43.9874L1109.7 18.9552L1123.06 23.2384L1137.74 32.7104L1139.9 34.1075L1139.25 31.6158L1134.81 14.7473V1H1161.36V14.9084L1156.92 31.6604L1156.26 34.1709L1158.43 32.7547L1173.06 23.2369L1186.26 18.9584L1194.42 43.9874L1181.22 48.2661L1163.63 49.2767L1161.04 49.4256L1163.06 51.0539L1176.72 62.0552L1184.98 73.2336L1163.4 88.6099L1155.29 77.4075L1149.05 61.1725L1148.13 58.7763L1147.19 61.1632L1140.7 77.574L1132.6 88.6108L1111.16 73.2253L1119.24 61.8449L1132.89 51.0597Z" stroke="#6F74D8" stroke-opacity="0.5" stroke-width="2"/>
<path d="M1228.29 51.0597L1230.36 49.4277L1227.73 49.2767L1210.14 48.2661L1196.94 43.9874L1205.1 18.9552L1218.46 23.2384L1233.14 32.7104L1235.3 34.1075L1234.65 31.6158L1230.21 14.7473V1H1256.76V14.9084L1252.32 31.6604L1251.66 34.1709L1253.83 32.7547L1268.46 23.2369L1281.66 18.9584L1289.82 43.9874L1276.62 48.2661L1259.03 49.2767L1256.44 49.4256L1258.46 51.0539L1272.12 62.0552L1280.38 73.2336L1258.8 88.6099L1250.69 77.4075L1244.45 61.1725L1243.53 58.7763L1242.59 61.1632L1236.1 77.574L1228 88.6108L1206.56 73.2253L1214.64 61.8449L1228.29 51.0597Z" stroke="#6F74D8" stroke-opacity="0.5" stroke-width="2"/>
<path d="M1323.69 51.0597L1325.76 49.4277L1323.13 49.2767L1305.54 48.2661L1292.34 43.9874L1300.5 18.9552L1313.86 23.2384L1328.54 32.7104L1330.7 34.1075L1330.05 31.6158L1325.61 14.7473V1H1352.16V14.9084L1347.72 31.6604L1347.06 34.1709L1349.23 32.7547L1363.86 23.2369L1377.06 18.9584L1385.22 43.9874L1372.02 48.2661L1354.43 49.2767L1351.84 49.4256L1353.86 51.0539L1367.52 62.0552L1375.78 73.2336L1354.2 88.6099L1346.09 77.4075L1339.85 61.1725L1338.93 58.7763L1337.99 61.1632L1331.5 77.574L1323.4 88.6108L1301.96 73.2253L1310.04 61.8449L1323.69 51.0597Z" stroke="#6F74D8" stroke-opacity="0.5" stroke-width="2"/>
<path d="M1419.09 51.0597L1421.16 49.4277L1418.53 49.2767L1400.94 48.2661L1387.74 43.9874L1395.9 18.9552L1409.26 23.2384L1423.94 32.7104L1426.1 34.1075L1425.45 31.6158L1421.01 14.7473V1H1447.56V14.9084L1443.12 31.6604L1442.46 34.1709L1444.63 32.7547L1459.26 23.2369L1472.46 18.9584L1480.62 43.9874L1467.42 48.2661L1449.83 49.2767L1447.24 49.4256L1449.26 51.0539L1462.92 62.0552L1471.18 73.2336L1449.6 88.6099L1441.49 77.4075L1435.25 61.1725L1434.33 58.7763L1433.39 61.1632L1426.9 77.574L1418.8 88.6108L1397.36 73.2253L1405.44 61.8449L1419.09 51.0597Z" stroke="#6F74D8" stroke-opacity="0.5" stroke-width="2"/>
<path d="M-57.9895 141.393L-55.9244 139.761L-58.5521 139.61L-76.1404 138.599L-89.339 134.32L-81.1809 109.288L-67.8173 113.571L-53.1411 123.043L-50.9763 124.441L-51.6317 121.949L-56.0689 105.08V91.333H-29.5212V105.241L-33.958 121.993L-34.6229 124.504L-32.446 123.088L-17.8163 113.57L-4.61823 109.291L3.53877 134.32L-9.65981 138.599L-27.2481 139.61L-29.8397 139.759L-27.8179 141.387L-14.1581 152.388L-5.89919 163.567L-27.4766 178.943L-35.5943 167.74L-41.8265 151.505L-42.7463 149.109L-43.69 151.496L-50.1784 167.907L-58.2815 178.944L-79.72 163.558L-71.6374 152.178L-57.9895 141.393Z" stroke="#6F74D8" stroke-opacity="0.5" stroke-width="2"/>
<path d="M37.4104 141.393L39.4755 139.761L36.8478 139.61L19.2595 138.599L6.06093 134.32L14.219 109.288L27.5826 113.571L42.2588 123.043L44.4236 124.441L43.7682 121.949L39.331 105.08V91.333H65.8787V105.241L61.4419 121.993L60.777 124.504L62.9539 123.088L77.5836 113.57L90.7817 109.291L98.9387 134.32L85.7401 138.599L68.1518 139.61L65.5602 139.759L67.582 141.387L81.2418 152.388L89.5007 163.567L67.9233 178.943L59.8056 167.74L53.5734 151.505L52.6536 149.109L51.7099 151.496L45.2215 167.907L37.1184 178.944L15.68 163.558L23.7625 152.178L37.4104 141.393Z" stroke="#6F74D8" stroke-opacity="0.5" stroke-width="2"/>
<path d="M132.811 141.393L134.876 139.761L132.248 139.61L114.66 138.599L101.461 134.32L109.619 109.288L122.983 113.571L137.659 123.043L139.824 124.441L139.168 121.949L134.731 105.08V91.333H161.279V105.241L156.842 121.993L156.177 124.504L158.354 123.088L172.984 113.57L186.182 109.291L194.339 134.32L181.14 138.599L163.552 139.61L160.96 139.759L162.982 141.387L176.642 152.388L184.901 163.567L163.323 178.943L155.206 167.74L148.974 151.505L148.054 149.109L147.11 151.496L140.622 167.907L132.519 178.944L111.08 163.558L119.163 152.178L132.811 141.393Z" stroke="#6F74D8" stroke-opacity="0.5" stroke-width="2"/>
<path d="M228.21 141.393L230.276 139.761L227.648 139.61L210.06 138.599L196.861 134.32L205.019 109.288L218.383 113.571L233.059 123.043L235.224 124.441L234.568 121.949L230.131 105.08V91.333H256.679V105.241L252.242 121.993L251.577 124.504L253.754 123.088L268.384 113.57L281.582 109.291L289.739 134.32L276.54 138.599L258.952 139.61L256.36 139.759L258.382 141.387L272.042 152.388L280.301 163.567L258.723 178.943L250.606 167.74L244.373 151.505L243.454 149.109L242.51 151.496L236.022 167.907L227.918 178.944L206.48 163.558L214.563 152.178L228.21 141.393Z" stroke="#6F74D8" stroke-opacity="0.5" stroke-width="2"/>
<path d="M323.611 141.393L325.676 139.761L323.048 139.61L305.46 138.599L292.261 134.32L300.419 109.288L313.783 113.571L328.459 123.043L330.624 124.441L329.968 121.949L325.531 105.08V91.333H352.079V105.241L347.642 121.993L346.977 124.504L349.154 123.088L363.784 113.57L376.982 109.291L385.139 134.32L371.94 138.599L354.352 139.61L351.76 139.759L353.782 141.387L367.442 152.388L375.701 163.567L354.123 178.943L346.006 167.74L339.774 151.505L338.854 149.109L337.91 151.496L331.422 167.907L323.319 178.944L301.88 163.558L309.963 152.178L323.611 141.393Z" stroke="#6F74D8" stroke-opacity="0.5" stroke-width="2"/>
<path d="M419.011 141.393L421.076 139.761L418.448 139.61L400.86 138.599L387.661 134.32L395.819 109.288L409.183 113.571L423.859 123.043L426.024 124.441L425.368 121.949L420.931 105.08V91.333H447.479V105.241L443.042 121.993L442.377 124.504L444.554 123.088L459.184 113.57L472.382 109.291L480.539 134.32L467.34 138.599L449.752 139.61L447.16 139.759L449.182 141.387L462.842 152.388L471.101 163.567L449.523 178.943L441.406 167.74L435.174 151.505L434.254 149.109L433.31 151.496L426.822 167.907L418.718 178.944L397.28 163.558L405.363 152.178L419.011 141.393Z" stroke="#6F74D8" stroke-opacity="0.5" stroke-width="2"/>
<path d="M514.411 141.393L516.476 139.761L513.848 139.61L496.26 138.599L483.061 134.32L491.219 109.288L504.583 113.571L519.259 123.043L521.424 124.441L520.768 121.949L516.331 105.08V91.333H542.879V105.241L538.442 121.993L537.777 124.504L539.954 123.088L554.584 113.57L567.782 109.291L575.939 134.32L562.74 138.599L545.152 139.61L542.56 139.759L544.582 141.387L558.242 152.388L566.501 163.567L544.924 178.943L536.806 167.74L530.574 151.505L529.654 149.109L528.71 151.496L522.222 167.907L514.119 178.944L492.68 163.558L500.763 152.178L514.411 141.393Z" stroke="#6F74D8" stroke-opacity="0.5" stroke-width="2"/>
<path d="M609.811 141.393L611.876 139.761L609.248 139.61L591.66 138.599L578.461 134.32L586.619 109.288L599.983 113.571L614.659 123.043L616.824 124.441L616.168 121.949L611.731 105.08V91.333H638.279V105.241L633.842 121.993L633.177 124.504L635.354 123.088L649.984 113.57L663.182 109.291L671.339 134.32L658.14 138.599L640.552 139.61L637.96 139.759L639.982 141.387L653.642 152.388L661.901 163.567L640.323 178.943L632.206 167.74L625.974 151.505L625.054 149.109L624.11 151.496L617.622 167.907L609.519 178.944L588.08 163.558L596.163 152.178L609.811 141.393Z" stroke="#6F74D8" stroke-opacity="0.5" stroke-width="2"/>
<path d="M705.211 141.393L707.276 139.761L704.648 139.61L687.06 138.599L673.861 134.32L682.019 109.288L695.383 113.571L710.059 123.043L712.224 124.441L711.568 121.949L707.131 105.08V91.333H733.679V105.241L729.242 121.993L728.577 124.504L730.754 123.088L745.384 113.57L758.582 109.291L766.739 134.32L753.54 138.599L735.952 139.61L733.361 139.759L735.382 141.387L749.042 152.388L757.301 163.567L735.724 178.943L727.606 167.74L721.374 151.505L720.454 149.109L719.51 151.496L713.022 167.907L704.919 178.944L683.48 163.558L691.563 152.178L705.211 141.393Z" stroke="#6F74D8" stroke-opacity="0.5" stroke-width="2"/>
<path d="M800.611 141.393L802.676 139.761L800.048 139.61L782.46 138.599L769.261 134.32L777.419 109.288L790.783 113.571L805.459 123.043L807.624 124.441L806.968 121.949L802.531 105.08V91.333H829.079V105.241L824.642 121.993L823.977 124.504L826.154 123.088L840.784 113.57L853.982 109.291L862.139 134.32L848.94 138.599L831.352 139.61L828.76 139.759L830.782 141.387L844.442 152.388L852.701 163.567L831.123 178.943L823.006 167.74L816.774 151.505L815.854 149.109L814.91 151.496L808.422 167.907L800.319 178.944L778.88 163.558L786.963 152.178L800.611 141.393Z" stroke="#6F74D8" stroke-opacity="0.5" stroke-width="2"/>
<path d="M896.011 141.393L898.076 139.761L895.448 139.61L877.86 138.599L864.661 134.32L872.819 109.288L886.183 113.571L900.859 123.043L903.024 124.441L902.368 121.949L897.931 105.08V91.333H924.479V105.241L920.042 121.993L919.377 124.504L921.554 123.088L936.184 113.57L949.382 109.291L957.539 134.32L944.34 138.599L926.752 139.61L924.16 139.759L926.182 141.387L939.842 152.388L948.101 163.567L926.523 178.943L918.406 167.74L912.174 151.505L911.254 149.109L910.31 151.496L903.822 167.907L895.718 178.944L874.28 163.558L882.363 152.178L896.011 141.393Z" stroke="#6F74D8" stroke-opacity="0.5" stroke-width="2"/>
<path d="M991.41 141.393L993.476 139.761L990.848 139.61L973.26 138.599L960.061 134.32L968.219 109.288L981.583 113.571L996.259 123.043L998.424 124.441L997.768 121.949L993.331 105.08V91.333H1019.88V105.241L1015.44 121.993L1014.78 124.504L1016.95 123.088L1031.58 113.57L1044.78 109.291L1052.94 134.32L1039.74 138.599L1022.15 139.61L1019.56 139.759L1021.58 141.387L1035.24 152.388L1043.5 163.567L1021.92 178.943L1013.81 167.74L1007.57 151.505L1006.65 149.109L1005.71 151.496L999.222 167.907L991.118 178.944L969.68 163.558L977.763 152.178L991.41 141.393Z" stroke="#6F74D8" stroke-opacity="0.5" stroke-width="2"/>
<path d="M1086.81 141.393L1088.88 139.761L1086.25 139.61L1068.66 138.599L1055.46 134.32L1063.62 109.288L1076.98 113.571L1091.66 123.043L1093.82 124.441L1093.17 121.949L1088.73 105.08V91.333H1115.28V105.241L1110.84 121.993L1110.18 124.504L1112.35 123.088L1126.98 113.57L1140.18 109.291L1148.34 134.32L1135.14 138.599L1117.55 139.61L1114.96 139.759L1116.98 141.387L1130.64 152.388L1138.9 163.567L1117.32 178.943L1109.21 167.74L1102.97 151.505L1102.05 149.109L1101.11 151.496L1094.62 167.907L1086.52 178.944L1065.08 163.558L1073.16 152.178L1086.81 141.393Z" stroke="#6F74D8" stroke-opacity="0.5" stroke-width="2"/>
<path d="M1182.21 141.393L1184.28 139.761L1181.65 139.61L1164.06 138.599L1150.86 134.32L1159.02 109.288L1172.38 113.571L1187.06 123.043L1189.22 124.441L1188.57 121.949L1184.13 105.08V91.333H1210.68V105.241L1206.24 121.993L1205.58 124.504L1207.75 123.088L1222.38 113.57L1235.58 109.291L1243.74 134.32L1230.54 138.599L1212.95 139.61L1210.36 139.759L1212.38 141.387L1226.04 152.388L1234.3 163.567L1212.72 178.943L1204.61 167.74L1198.37 151.505L1197.45 149.109L1196.51 151.496L1190.02 167.907L1181.92 178.944L1160.48 163.558L1168.56 152.178L1182.21 141.393Z" stroke="#6F74D8" stroke-opacity="0.5" stroke-width="2"/>
<path d="M1277.61 141.393L1279.68 139.761L1277.05 139.61L1259.46 138.599L1246.26 134.32L1254.42 109.288L1267.78 113.571L1282.46 123.043L1284.62 124.441L1283.97 121.949L1279.53 105.08V91.333H1306.08V105.241L1301.64 121.993L1300.98 124.504L1303.15 123.088L1317.78 113.57L1330.98 109.291L1339.14 134.32L1325.94 138.599L1308.35 139.61L1305.76 139.759L1307.78 141.387L1321.44 152.388L1329.7 163.567L1308.12 178.943L1300.01 167.74L1293.77 151.505L1292.85 149.109L1291.91 151.496L1285.42 167.907L1277.32 178.944L1255.88 163.558L1263.96 152.178L1277.61 141.393Z" stroke="#6F74D8" stroke-opacity="0.5" stroke-width="2"/>
<path d="M1373.01 141.393L1375.08 139.761L1372.45 139.61L1354.86 138.599L1341.66 134.32L1349.82 109.288L1363.18 113.571L1377.86 123.043L1380.02 124.441L1379.37 121.949L1374.93 105.08V91.333H1401.48V105.241L1397.04 121.993L1396.38 124.504L1398.55 123.088L1413.18 113.57L1426.38 109.291L1434.54 134.32L1421.34 138.599L1403.75 139.61L1401.16 139.759L1403.18 141.387L1416.84 152.388L1425.1 163.567L1403.52 178.943L1395.41 167.74L1389.17 151.505L1388.25 149.109L1387.31 151.496L1380.82 167.907L1372.72 178.944L1351.28 163.558L1359.36 152.178L1373.01 141.393Z" stroke="#6F74D8" stroke-opacity="0.5" stroke-width="2"/>
<path d="M1468.41 141.393L1470.48 139.761L1467.85 139.61L1450.26 138.599L1437.06 134.32L1445.22 109.288L1458.58 113.571L1473.26 123.043L1475.42 124.441L1474.77 121.949L1470.33 105.08V91.333H1496.88V105.241L1492.44 121.993L1491.78 124.504L1493.95 123.088L1508.58 113.57L1521.78 109.291L1529.94 134.32L1516.74 138.599L1499.15 139.61L1496.56 139.759L1498.58 141.387L1512.24 152.388L1520.5 163.567L1498.92 178.943L1490.81 167.74L1484.57 151.505L1483.65 149.109L1482.71 151.496L1476.22 167.907L1468.12 178.944L1446.68 163.558L1454.76 152.178L1468.41 141.393Z" stroke="#6F74D8" stroke-opacity="0.5" stroke-width="2"/>
</g>
<defs>
<clipPath id="clip0_450_425">
<rect width="1440" height="270" fill="white"/>
</clipPath>
</defs>
</svg>
