<svg width="105" height="40" viewBox="0 0 105 40" fill="none" xmlns="http://www.w3.org/2000/svg">
<g clip-path="url(#clip0_449_2117)">
<path fill-rule="evenodd" clip-rule="evenodd" d="M35.6545 18.4967H35.6879L38.2018 10H39.6597L42.274 18.4967H42.3077L44.7878 10.1624H47.3684L43.0952 22.6316H41.2852L38.7715 14.6375H38.738L36.3583 22.6316H34.5483L30.5263 10.1624H33.1071L35.6545 18.4967Z" fill="black"/>
<path fill-rule="evenodd" clip-rule="evenodd" d="M51.0025 13.0802H50.9692L49.5844 17.552H52.5708L51.0025 13.0802ZM48.8837 19.5102L47.8492 22.1052H45.2632L50.1683 9.47363H52.0703L56.8421 22.1052H54.2227L53.2549 19.5102H48.8837Z" fill="black"/>
<path fill-rule="evenodd" clip-rule="evenodd" d="M67.5618 15.7211V16.0299C67.5618 19.4909 65.743 22.5621 61.838 22.5621C58.1668 22.5621 55.847 19.5398 55.847 16.1597C55.847 12.6663 58.2334 9.66016 61.9882 9.66016C64.1241 9.66016 65.9932 10.7163 66.9609 12.5852L64.7917 13.7224C64.291 12.6176 63.2228 11.7727 61.9213 11.7727C59.5518 11.7727 58.3836 14.1288 58.3836 16.1597C58.3836 18.1911 59.5685 20.4496 61.938 20.4496C63.4735 20.4496 64.7583 19.1496 64.8083 17.6711H62.1384V15.7211H67.5618Z" fill="black"/>
<path fill-rule="evenodd" clip-rule="evenodd" d="M71 15.6237H71.3169C72.6686 15.6237 73.6199 15.2338 73.6199 13.7389C73.6199 12.2277 72.6355 11.9351 71.3336 11.9351H71V15.6237ZM77.0576 22.2371H74.0872L71.0333 17.2974H71V22.2371H68.5468V9.98535H71.8678C74.3543 9.98535 76.073 11.0577 76.073 13.6737C76.073 15.2338 75.1888 16.7937 73.503 17.0698L77.0576 22.2371Z" fill="black"/>
<path fill-rule="evenodd" clip-rule="evenodd" d="M83.7 13.2512H83.6667L82.2816 17.7036H85.2686L83.7 13.2512ZM81.5807 19.6534L80.5461 22.2371H77.9595L82.8656 9.66016H84.768L89.5407 22.2371H86.9208L85.9528 19.6534H81.5807Z" fill="black"/>
<path fill-rule="evenodd" clip-rule="evenodd" d="M100.689 14.6325H100.656L97.8022 22.3996H96.9509L94.1974 14.6325H94.1641L93.0459 22.2371H90.5764L92.6957 9.66016H94.4312L97.5351 17.736L100.505 9.66016H102.274L104.16 22.2371H101.69L100.689 14.6325Z" fill="black"/>
<path fill-rule="evenodd" clip-rule="evenodd" d="M2.49333 39.9999C3.87035 39.9999 4.98657 31.067 4.98657 20.048C4.98657 9.02897 3.87035 0.0966797 2.49333 0.0966797C1.11632 0.0966797 9.15527e-05 9.02897 9.15527e-05 20.048C9.15527e-05 31.067 1.11632 39.9999 2.49333 39.9999Z" fill="black"/>
<path fill-rule="evenodd" clip-rule="evenodd" d="M17.5236 39.9999C18.9009 39.9999 20.0169 31.067 20.0169 20.048C20.0169 9.02897 18.9009 0.0966797 17.5236 0.0966797C16.1466 0.0966797 15.0306 9.02897 15.0306 20.048C15.0306 31.067 16.1466 39.9999 17.5236 39.9999Z" fill="black"/>
<path fill-rule="evenodd" clip-rule="evenodd" d="M24.8395 33.0098C26.2168 33.0098 27.3328 27.2064 27.3328 20.0478C27.3328 12.8896 26.2168 7.08643 24.8395 7.08643C23.4623 7.08643 22.3463 12.8896 22.3463 20.0478C22.3463 27.2064 23.4623 33.0098 24.8395 33.0098Z" fill="black"/>
<path fill-rule="evenodd" clip-rule="evenodd" d="M10.0085 33.0098C11.3857 33.0098 12.5019 27.2064 12.5019 20.0478C12.5019 12.8896 11.3857 7.08643 10.0085 7.08643C8.63123 7.08643 7.51523 12.8896 7.51523 20.0478C7.51523 27.2064 8.63123 33.0098 10.0085 33.0098Z" fill="black"/>
<path fill-rule="evenodd" clip-rule="evenodd" d="M32.5781 28.2923C32.6689 28.1872 32.735 28.0245 32.7835 27.9535C32.832 27.8831 32.864 27.8069 32.8987 27.7336C32.9326 27.6605 32.9518 27.5957 32.9843 27.531C33.0171 27.4663 33.029 27.4074 33.0357 27.3639C33.0421 27.3208 33.05 27.27 33.0596 27.2118C33.0696 27.1536 33.0746 27.0961 33.0746 27.0393C33.0746 26.9362 33.05 26.8645 33.001 26.8243C32.864 26.7147 32.7632 26.5841 32.6982 26.4323C32.6327 26.2811 32.6003 26.1185 32.6003 25.9457C32.6003 25.8023 32.6204 25.6534 32.6615 25.4982C32.7022 25.3437 32.7592 25.2041 32.8327 25.0787C32.9056 24.9537 32.9923 24.8506 33.0918 24.7687C33.1908 24.6875 33.2976 24.6465 33.4116 24.6465C33.552 24.6465 33.6695 24.6661 33.7638 24.704C33.8586 24.7428 33.9328 24.8012 33.9862 24.8817C34.0401 24.9611 34.0783 25.0638 34.1013 25.1883C34.1239 25.3137 34.1353 25.4626 34.1353 25.6358C34.1353 25.7423 34.1827 25.8413 34.2772 25.9326C34.3715 26.0247 34.4936 26.1235 34.6438 26.2297C34.7935 26.3369 34.9598 26.4548 35.1424 26.5852C35.3248 26.7147 35.5034 26.8728 35.6779 27.0591C35.8523 27.2459 36.0118 27.4649 36.1571 27.716C36.3019 27.9679 36.4137 28.2663 36.4921 28.6128C36.6225 28.5266 36.7331 28.4251 36.8245 28.3081C36.9155 28.1914 36.9948 28.071 37.0616 27.946C37.128 27.8211 37.1861 27.6968 37.2349 27.5739C37.284 27.4509 37.3327 27.3413 37.3817 27.2463C37.4306 27.1516 37.4834 27.0745 37.5406 27.0147C37.5976 26.9542 37.6655 26.9245 37.7435 26.9245C37.7925 26.9245 37.8341 26.9384 37.868 26.9671C37.9025 26.9953 37.9194 27.0377 37.9194 27.0941C37.9194 27.1906 37.896 27.3133 37.8486 27.4613C37.8012 27.6097 37.75 27.7536 37.6948 27.8935C37.6296 28.0604 37.5607 28.2108 37.4894 28.3457C37.4175 28.4806 37.3377 28.6063 37.2496 28.7226C37.162 28.8395 37.0616 28.9484 36.949 29.0502C36.8366 29.1519 36.7103 29.2491 36.5702 29.342C36.5668 29.5893 36.5255 29.8051 36.4454 29.9912C36.3654 30.1782 36.259 30.3352 36.1254 30.4633C35.9913 30.5919 35.8368 30.6884 35.6605 30.7536C35.4848 30.8186 35.2991 30.8511 35.1035 30.8511C34.973 30.8511 34.8483 30.8303 34.7294 30.7881C34.6105 30.7471 34.5052 30.6884 34.414 30.6138C34.3228 30.5387 34.2495 30.4496 34.1939 30.3465C34.1384 30.2429 34.1107 30.1313 34.1107 30.0113C34.1076 29.832 34.167 29.6669 34.2893 29.5171C34.4116 29.3673 34.6275 29.2193 34.9372 29.0725V28.9631C34.9372 28.7596 34.859 28.5372 34.7028 28.2959C34.5461 28.0543 34.2953 27.8069 33.9496 27.5542C33.8845 27.5039 33.8202 27.4649 33.7562 27.4365C33.693 27.4081 33.632 27.3675 33.573 27.3138C33.5144 27.4775 33.3875 27.7511 33.3875 27.7511C33.3875 27.7511 33.2596 27.9869 33.1993 28.0733C33.1391 28.1601 33.0828 28.2266 33.0303 28.2733C32.9784 28.3196 32.5902 28.7204 32.4957 28.7499C32.4516 28.7808 32.3922 28.7892 32.3587 28.7224C32.3249 28.6557 32.5453 28.3615 32.5781 28.2923Z" fill="black"/>
<path fill-rule="evenodd" clip-rule="evenodd" d="M39.674 25.7254C39.8009 25.7254 39.9232 25.731 40.0407 25.7425C40.1581 25.7545 40.2625 25.777 40.3537 25.8104C40.4448 25.8436 40.5175 25.8912 40.5711 25.9527C40.6252 26.0141 40.6518 26.0951 40.6518 26.195C40.6518 26.2749 40.6346 26.3572 40.6006 26.4422C40.5662 26.527 40.5215 26.6062 40.4663 26.6793C40.4106 26.7531 40.3465 26.8162 40.273 26.8694C40.1997 26.9229 40.1241 26.9576 40.0459 26.9739C39.9804 26.9908 39.8906 27.0034 39.7768 27.0118C39.6626 27.0199 39.5079 27.0276 39.3123 27.0343V27.2538C39.3123 27.3571 39.3161 27.4827 39.3246 27.6312C39.3327 27.7791 39.3465 27.9343 39.3662 28.0956C39.3857 28.2571 39.41 28.4173 39.4395 28.5754C39.4688 28.7335 39.5048 28.8767 39.547 29.0051C39.5893 29.1332 39.6391 29.2363 39.6963 29.3146C39.7531 29.3931 39.8177 29.4323 39.8892 29.4323C39.9739 29.4323 40.068 29.3894 40.1704 29.3044C40.273 29.2198 40.3767 29.1093 40.4806 28.9724C40.585 28.8359 40.6894 28.6818 40.7937 28.5102C40.8979 28.3388 40.9958 28.1671 41.087 27.9955C41.1782 27.8243 41.26 27.6598 41.3317 27.5037C41.403 27.347 41.4602 27.2143 41.5027 27.1038C41.5224 27.0474 41.5563 27.0034 41.6055 26.9716C41.6542 26.94 41.7179 26.924 41.7959 26.924C41.8449 26.924 41.8864 26.9382 41.9206 26.9669C41.9548 26.9951 41.972 27.0373 41.972 27.0941V27.1291C41.972 27.1421 41.9689 27.1573 41.9622 27.174C41.8967 27.3704 41.8154 27.5969 41.7179 27.8534C41.6198 28.11 41.506 28.3735 41.3755 28.6455C41.245 28.9164 41.1008 29.1837 40.943 29.4467C40.7848 29.7097 40.6127 29.9448 40.4272 30.1512C40.241 30.3578 40.0432 30.5247 39.8329 30.6508C39.6228 30.7773 39.4035 30.8407 39.1756 30.8407C38.9606 30.8407 38.7728 30.7972 38.6132 30.7108C38.4534 30.624 38.3157 30.5051 38.1997 30.354C38.0844 30.2024 37.9883 30.0242 37.9114 29.8189C37.8348 29.6143 37.7749 29.3931 37.7306 29.1551C37.6864 28.9164 37.6557 28.6679 37.6381 28.408C37.6198 28.1479 37.611 27.8899 37.611 27.6334V27.0391C37.3958 27.0291 37.2329 27.0012 37.122 26.954C37.0116 26.9076 36.9557 26.8178 36.9557 26.6845C36.9557 26.5209 37.0219 26.3831 37.154 26.2694C37.2856 26.1567 37.4528 26.0646 37.6551 25.9949C37.6872 25.669 37.7413 25.3706 37.8162 25.1008C37.8911 24.8312 37.9816 24.5989 38.0875 24.4043C38.1933 24.2094 38.3115 24.0578 38.4418 23.9497C38.5721 23.8415 38.7062 23.7871 38.843 23.7871C38.9243 23.7871 39.005 23.8006 39.0848 23.827C39.1651 23.8539 39.2366 23.8972 39.2998 23.957C39.3635 24.0172 39.4158 24.0977 39.4565 24.1994C39.4972 24.3012 39.5177 24.4266 39.5177 24.5764C39.5177 24.6932 39.5128 24.7922 39.5028 24.8737C39.4932 24.9553 39.4811 25.0361 39.4661 25.1161C39.4516 25.1958 39.4362 25.2833 39.4199 25.3782C39.4035 25.473 39.3874 25.5905 39.3709 25.7306C39.4362 25.7272 39.4941 25.7254 39.5446 25.7254H39.674Z" fill="black"/>
<path fill-rule="evenodd" clip-rule="evenodd" d="M43.8494 29.5618C44.0968 29.5618 44.2917 29.5054 44.4334 29.3922C44.5753 29.2787 44.6884 29.1341 44.7736 28.9575C44.6625 28.9208 44.5593 28.8702 44.4629 28.805C44.3666 28.7405 44.2835 28.6587 44.2135 28.5601C44.1435 28.4622 44.0877 28.3469 44.0474 28.2154C44.0065 28.0839 43.9862 27.9332 43.9862 27.7634C43.9862 27.4902 44.0407 27.2545 44.15 27.0569C44.2593 26.8589 44.4035 26.7161 44.5827 26.6295C44.5273 26.5763 44.458 26.5305 44.3751 26.4926C44.2917 26.4542 44.1851 26.4346 44.0548 26.4346C43.8885 26.4346 43.7343 26.4858 43.5928 26.5871C43.4511 26.6886 43.3277 26.8219 43.2234 26.9868C43.1192 27.1514 43.0376 27.3398 42.9789 27.5514C42.9205 27.7627 42.891 27.9797 42.891 28.2032C42.891 28.3801 42.9056 28.5506 42.9351 28.7155C42.9643 28.8797 43.016 29.0247 43.0893 29.1499C43.1626 29.2749 43.26 29.3746 43.3825 29.4493C43.5045 29.5246 43.6603 29.5618 43.8494 29.5618ZM45.8247 27.8435C45.8247 27.9267 45.8221 28.0059 45.8171 28.0808C45.8122 28.1557 45.8066 28.2265 45.8004 28.293C46.0055 28.2763 46.2016 28.1658 46.3893 27.9608C46.5766 27.7562 46.7407 27.4706 46.8808 27.1041C46.9002 27.0477 46.9344 27.0035 46.9832 26.9714C47.0323 26.9401 47.0958 26.9243 47.174 26.9243C47.223 26.9243 47.2643 26.9383 47.2985 26.9669C47.3329 26.9951 47.3499 27.0375 47.3499 27.0941V27.1291C47.3499 27.1426 47.3466 27.1573 47.3401 27.174C47.2456 27.4537 47.1427 27.705 47.0323 27.9287C46.9215 28.1514 46.7961 28.3411 46.6557 28.4978C46.5156 28.6548 46.3573 28.7793 46.1817 28.8727C46.0056 28.9654 45.8048 29.0223 45.58 29.0423C45.5378 29.1592 45.4848 29.285 45.4209 29.4195C45.3576 29.5548 45.281 29.6884 45.1915 29.8217C45.1017 29.9552 44.9991 30.0835 44.8833 30.2065C44.7676 30.3296 44.6357 30.4379 44.4873 30.5311C44.3389 30.624 44.1737 30.6993 43.9913 30.7557C43.8085 30.8126 43.6082 30.8408 43.3897 30.8408C42.9529 30.8408 42.5929 30.7724 42.3092 30.6355C42.0258 30.4993 41.8017 30.3204 41.6372 30.0989C41.4722 29.8776 41.3585 29.6263 41.2945 29.3446C41.2311 29.0631 41.1998 28.776 41.1998 28.4829C41.1998 28.1367 41.2507 27.7986 41.3533 27.4688C41.4561 27.1393 41.6184 26.8458 41.8401 26.5898C42.0618 26.3331 42.3459 26.1267 42.693 25.9699C43.0403 25.8136 43.4583 25.7354 43.9471 25.7354C44.1069 25.7354 44.2502 25.7638 44.3773 25.8202C44.5045 25.8768 44.6162 25.9481 44.7121 26.0326C44.8085 26.1175 44.8898 26.2072 44.9566 26.3024C45.0237 26.3976 45.0782 26.4847 45.1205 26.5647C45.2378 26.5911 45.3406 26.6435 45.4287 26.722C45.5165 26.8005 45.5898 26.897 45.6486 27.0118C45.7074 27.1264 45.7514 27.2554 45.7805 27.3991C45.8098 27.5421 45.8247 27.6903 45.8247 27.8435Z" fill="black"/>
<path fill-rule="evenodd" clip-rule="evenodd" d="M46.6703 27.6437C46.6703 27.6137 46.6756 27.5841 46.6873 27.5539C46.6989 27.5237 46.7092 27.5005 46.7192 27.484C46.7679 27.3875 46.8073 27.3022 46.8366 27.2289C46.8656 27.156 46.8868 27.0917 46.9 27.0367C46.913 26.9817 46.9213 26.9327 46.9244 26.8894C46.9275 26.8459 46.9293 26.8044 46.9293 26.7649C46.9293 26.6947 46.9219 26.6406 46.9074 26.6023C46.8927 26.5641 46.8772 26.538 46.8609 26.5247C46.7273 26.4114 46.6271 26.2811 46.5603 26.1326C46.4935 25.9847 46.4602 25.822 46.4602 25.6456C46.4602 25.5026 46.4803 25.359 46.5212 25.2157C46.5621 25.0732 46.6189 24.9437 46.6924 24.8289C46.7655 24.7141 46.8518 24.6216 46.9514 24.5514C47.0507 24.4817 47.1575 24.4468 47.2713 24.4468C47.4116 24.4468 47.5292 24.4655 47.6235 24.5038C47.7181 24.5426 47.7925 24.5963 47.8459 24.6665C47.9 24.7364 47.938 24.8181 47.9608 24.9114C47.9836 25.0046 47.9952 25.1063 47.9952 25.2157C47.9952 25.3224 47.9936 25.4 47.9901 25.4485C47.9869 25.4963 47.9854 25.5392 47.9854 25.5757V25.6905C47.9854 25.7273 47.9936 25.7638 48.0097 25.8004C48.026 25.8372 48.0535 25.8735 48.0929 25.91C48.1318 25.947 48.1926 25.9847 48.2739 26.0226C48.3553 26.0611 48.4605 26.1008 48.5893 26.1426C48.718 26.1841 48.8801 26.2285 49.0756 26.275C49.1637 26.2948 49.2721 26.3226 49.4008 26.3573C49.5296 26.3923 49.6525 26.4392 49.77 26.4974C49.8872 26.5556 49.9875 26.6296 50.0707 26.7198C50.1538 26.8093 50.1951 26.921 50.1951 27.0545C50.1951 27.2406 50.192 27.4829 50.1855 27.7811C50.1791 28.0795 50.1757 28.3966 50.1757 28.7329C50.1757 28.8295 50.177 28.9204 50.1808 29.0052C50.184 29.09 50.1951 29.164 50.2146 29.2274C50.2343 29.2905 50.2647 29.3402 50.3053 29.3774C50.3458 29.4137 50.4035 29.4324 50.4788 29.4324C50.5633 29.4324 50.6562 29.3896 50.757 29.3045C50.8583 29.2199 50.9615 29.1096 51.0675 28.9747C51.1736 28.8401 51.2785 28.6869 51.3835 28.515C51.4872 28.3438 51.5849 28.1726 51.6763 28.001C51.7679 27.8291 51.8489 27.6649 51.9213 27.5066C51.9928 27.348 52.0496 27.2158 52.092 27.1093C52.1112 27.0525 52.145 27.0076 52.1924 26.974C52.2393 26.9408 52.3037 26.9244 52.385 26.9244C52.4342 26.9244 52.4758 26.9384 52.5104 26.967C52.5442 26.9952 52.5612 27.0374 52.5612 27.094V27.1292C52.5612 27.1427 52.5583 27.1574 52.5515 27.1741C52.4865 27.3705 52.4049 27.597 52.3073 27.8539C52.2091 28.1102 52.0949 28.3736 51.9649 28.6457C51.8345 28.9168 51.6902 29.1838 51.5321 29.4469C51.3739 29.7099 51.2025 29.9449 51.0165 30.1513C50.8308 30.3579 50.6328 30.5248 50.4225 30.6509C50.2124 30.7777 49.9931 30.8408 49.7649 30.8408C49.4911 30.8408 49.2712 30.7946 49.1049 30.701C48.9384 30.6083 48.8101 30.461 48.7187 30.2614C48.6275 30.0615 48.5671 29.8037 48.5376 29.4897C48.5086 29.1746 48.4938 28.7961 48.4938 28.3531V27.6935C48.4938 27.4935 48.4831 27.3284 48.4623 27.1966C48.4409 27.0651 48.3977 26.9578 48.3325 26.8745C48.2674 26.7913 48.1727 26.7266 48.0488 26.6794C47.9248 26.6329 47.7605 26.5946 47.5551 26.5648C47.5064 26.6546 47.4606 26.773 47.4183 26.9194C47.3756 27.066 47.3292 27.209 47.2789 27.3489C47.2281 27.489 47.1705 27.6096 47.1052 27.7114C47.0399 27.8129 46.9619 27.8634 46.8705 27.8634C46.8055 27.8634 46.7559 27.8433 46.7215 27.8036C46.6873 27.7635 46.6703 27.7102 46.6703 27.6437Z" fill="black"/>
<path fill-rule="evenodd" clip-rule="evenodd" d="M52.434 24.2967C52.434 24.1505 52.4579 24.0118 52.5046 23.8821C52.5522 23.7522 52.6197 23.639 52.708 23.5427C52.7961 23.4461 52.9036 23.3694 53.0305 23.3128C53.1575 23.2562 53.3012 23.2275 53.4608 23.2275C53.5558 23.2275 53.6461 23.2454 53.7321 23.2799C53.8186 23.3151 53.8942 23.3676 53.9592 23.4375C54.0245 23.5072 54.077 23.5923 54.1159 23.6922C54.1552 23.7926 54.1751 23.9072 54.1751 24.0371C54.1751 24.2069 54.1467 24.3628 54.0913 24.5042C54.0361 24.6461 53.9614 24.7679 53.8664 24.8712C53.7719 24.9743 53.6628 25.0546 53.539 25.1108C53.4154 25.1676 53.2847 25.196 53.1477 25.196C53.0144 25.196 52.9018 25.1703 52.8108 25.1184C52.7192 25.0668 52.6461 24.9989 52.5907 24.9134C52.5348 24.8288 52.4952 24.7323 52.4709 24.624C52.4465 24.5157 52.434 24.4068 52.434 24.2967ZM52.5511 25.7854C52.5972 25.7854 52.6602 25.7902 52.7395 25.8003C52.8198 25.8105 52.9049 25.8272 52.9968 25.8504C53.0875 25.8739 53.1803 25.9052 53.2748 25.9456C53.3698 25.9851 53.4552 26.0333 53.5319 26.0902C53.6085 26.1466 53.6713 26.2131 53.7203 26.2902C53.7692 26.3665 53.7931 26.4545 53.7931 26.5546C53.7931 26.648 53.7922 26.782 53.7907 26.9568C53.7891 27.1316 53.7871 27.3233 53.7835 27.5313C53.7802 27.7393 53.7784 27.9502 53.7761 28.1631C53.7746 28.3763 53.7735 28.5664 53.7735 28.7329C53.7735 28.8294 53.7757 28.9203 53.7784 29.0051C53.782 29.0897 53.7931 29.1639 53.813 29.2271C53.8322 29.2905 53.8626 29.3405 53.9035 29.3771C53.9442 29.4136 54.0019 29.4324 54.077 29.4324C54.1615 29.4324 54.2553 29.3895 54.3577 29.3045C54.4605 29.2194 54.564 29.1089 54.6688 28.9722C54.7727 28.836 54.8771 28.6819 54.9813 28.5102C55.0859 28.3388 55.1835 28.1672 55.2747 27.996C55.3659 27.8248 55.4475 27.6603 55.5193 27.5038C55.591 27.347 55.6475 27.2142 55.6902 27.1039C55.7099 27.0475 55.7441 27.0035 55.7928 26.9717C55.8422 26.9405 55.9052 26.9241 55.9837 26.9241C56.0324 26.9241 56.0744 26.9383 56.1084 26.9665C56.1426 26.9951 56.1598 27.0378 56.1598 27.0939V27.1291C56.1598 27.1427 56.1565 27.1573 56.15 27.174C56.0847 27.3709 56.0034 27.5969 55.9052 27.8534C55.8073 28.1101 55.6938 28.374 55.5633 28.6454C55.4328 28.9165 55.2884 29.1838 55.1301 29.4468C54.9719 29.7102 54.8007 29.9448 54.6147 30.1512C54.4292 30.3578 54.2308 30.5248 54.0209 30.6506C53.8103 30.7774 53.5911 30.841 53.3633 30.841C53.0895 30.841 52.8692 30.7945 52.7029 30.7009C52.5368 30.608 52.4079 30.4609 52.3171 30.2613C52.2255 30.0614 52.1653 29.8041 52.1361 29.4892C52.1063 29.1745 52.092 28.796 52.092 28.3528V27.1842C52.092 27.1009 52.0925 27.0082 52.0945 26.9069C52.0958 26.8052 52.1017 26.7028 52.1115 26.5995C52.1215 26.4966 52.135 26.3956 52.1531 26.2972C52.1705 26.1991 52.1969 26.1123 52.2315 26.0378C52.2657 25.9627 52.3086 25.9018 52.3611 25.8549C52.4128 25.8087 52.4765 25.7854 52.5511 25.7854Z" fill="black"/>
<path fill-rule="evenodd" clip-rule="evenodd" d="M58.2519 26.9942C58.2519 26.8943 58.2268 26.8111 58.1763 26.7445C58.1263 26.6777 58.0339 26.6444 57.9001 26.6444C57.7698 26.6444 57.6538 26.6836 57.553 26.7621C57.4517 26.8399 57.3663 26.9432 57.2968 27.0718C57.2264 27.1999 57.1712 27.3479 57.1299 27.5162C57.0894 27.6847 57.0644 27.8586 57.0546 28.0383C57.2108 28.0246 57.3614 27.9889 57.5067 27.9308C57.6513 27.8726 57.7796 27.797 57.8902 27.7034C58.0015 27.6105 58.0892 27.5031 58.1544 27.3811C58.2192 27.2599 58.2519 27.1307 58.2519 26.9942ZM58.1736 29.5623C58.3889 29.5623 58.5925 29.5178 58.7854 29.4296C58.9774 29.3414 59.1564 29.2262 59.3231 29.0847C59.4892 28.9433 59.6414 28.7834 59.7802 28.605C59.9185 28.4274 60.0432 28.2477 60.1539 28.0656C60.2647 27.8841 60.36 27.7097 60.44 27.541C60.52 27.3732 60.5823 27.2272 60.6286 27.1038C60.6476 27.0474 60.6825 27.0035 60.7312 26.9717C60.7801 26.9401 60.8434 26.9241 60.9214 26.9241C60.9703 26.9241 61.0119 26.9383 61.0466 26.9669C61.0805 26.9951 61.0977 27.0373 61.0977 27.0941V27.1291C61.0977 27.1422 61.0944 27.1575 61.0879 27.174C61.0195 27.3874 60.9303 27.626 60.8215 27.8911C60.7126 28.1554 60.5835 28.4236 60.4353 28.6947C60.2869 28.9668 60.1188 29.2309 59.9315 29.4869C59.744 29.7434 59.537 29.9726 59.3106 30.1735C59.0844 30.3756 58.8372 30.5367 58.5699 30.6585C58.303 30.7801 58.0176 30.8408 57.7141 30.8408C57.2778 30.8408 56.9077 30.778 56.6046 30.6533C56.3016 30.5288 56.0555 30.361 55.8662 30.1512C55.6773 29.941 55.5403 29.701 55.4554 29.4296C55.3709 29.1583 55.3284 28.8756 55.3284 28.5829C55.3284 28.3528 55.3537 28.1216 55.404 27.8883C55.4549 27.6556 55.5305 27.432 55.6315 27.2189C55.7327 27.0057 55.8572 26.807 56.0056 26.6223C56.1538 26.4371 56.325 26.2774 56.519 26.1425C56.7128 26.0078 56.9296 25.9007 57.1692 25.8229C57.4088 25.7446 57.6687 25.7056 57.9492 25.7056C58.1119 25.7056 58.2644 25.7369 58.4061 25.8003C58.548 25.8637 58.6709 25.9474 58.7753 26.0525C58.8797 26.1576 58.9619 26.2787 59.0218 26.4172C59.0822 26.5559 59.1124 26.7012 59.1124 26.8546C59.1124 27.0041 59.0757 27.1674 59.0002 27.3441C58.9251 27.5202 58.8059 27.6901 58.6434 27.8534C58.4801 28.0165 58.2691 28.1599 58.0103 28.2829C57.7512 28.4062 57.4388 28.4877 57.0742 28.528C57.0932 28.6679 57.1299 28.801 57.1837 28.9273C57.2378 29.0541 57.3093 29.1644 57.399 29.2568C57.4888 29.3502 57.597 29.4247 57.7242 29.4795C57.8511 29.5341 58.0015 29.5623 58.1736 29.5623Z" fill="black"/>
<path fill-rule="evenodd" clip-rule="evenodd" d="M64.0916 29.3368C64.1072 29.2134 64.0864 29.098 64.0732 28.9755C64.0614 28.8616 64.0536 28.7526 64.0218 28.6421C64.0209 28.6389 64.0218 28.6367 64.0209 28.6337C64.0185 28.6258 64.0176 28.6177 64.0145 28.6096C64.0136 28.6107 64.0127 28.6116 64.0118 28.6123C63.9331 28.2658 63.8211 27.9674 63.6765 27.7157C63.5317 27.4644 63.3712 27.2456 63.1978 27.0586C63.023 26.8723 62.8446 26.7142 62.6618 26.5847C62.4794 26.4543 62.3132 26.3364 62.1632 26.2295C62.0132 26.123 61.8914 26.0242 61.7969 25.9322C61.7021 25.8408 61.6549 25.7418 61.6549 25.6353C61.6549 25.4621 61.6435 25.3132 61.6205 25.1878C61.5979 25.0635 61.5595 24.9609 61.5056 24.8813C61.4515 24.801 61.3776 24.7423 61.2833 24.7035C61.1889 24.6656 61.0711 24.646 60.9312 24.646C60.8175 24.646 60.7104 24.687 60.611 24.7683C60.5117 24.8501 60.4254 24.9532 60.3524 25.0782C60.2784 25.2036 60.2216 25.3432 60.1807 25.4977C60.14 25.6529 60.1197 25.8018 60.1197 25.9452C60.1197 26.118 60.1525 26.2807 60.2176 26.4318C60.2828 26.5836 60.3839 26.7142 60.5204 26.8238C60.5696 26.864 60.594 26.9357 60.594 27.0388C60.594 27.0956 60.5886 27.1531 60.5794 27.2113C60.5696 27.2695 60.5611 27.3205 60.5546 27.3634C60.5481 27.4069 60.5285 27.461 60.4958 27.526C60.4639 27.5907 60.4301 27.66 60.3959 27.7333C60.3617 27.8064 60.3309 27.8799 60.3032 27.953C60.2755 28.0265 60.2614 28.0928 60.2614 28.1526C60.2614 28.2063 60.2755 28.2514 60.3032 28.2875C60.3309 28.3243 60.3673 28.3428 60.4129 28.3428C60.452 28.3428 60.4979 28.3191 60.5497 28.2728C60.6022 28.2261 60.6588 28.1596 60.7182 28.0728C60.7786 27.9866 60.8414 27.8788 60.9066 27.7507C60.9719 27.6225 61.0336 27.477 61.0924 27.3133C61.1514 27.3672 61.2126 27.4076 61.2757 27.436C61.3396 27.4644 61.4042 27.5034 61.4692 27.5537C61.8145 27.8064 62.0657 28.054 62.2217 28.2954C62.3786 28.5367 62.4566 28.7592 62.4566 28.9626V29.072C62.1469 29.2191 61.9314 29.3668 61.8087 29.5166C61.6865 29.6664 61.6274 29.8315 61.6301 30.0108C61.6301 30.131 61.6581 30.2427 61.7133 30.3462C61.7689 30.4493 61.8422 30.5382 61.9341 30.6133C62.0248 30.688 62.1299 30.7466 62.249 30.7879C62.3679 30.8298 62.4924 30.8506 62.6225 30.8506C62.8187 30.8506 63.0045 30.8181 63.1801 30.7531C63.3562 30.688 63.5107 30.5914 63.6448 30.4628C63.7784 30.3347 63.8853 30.178 63.9653 29.9907C64.0444 29.8046 64.0864 29.5888 64.0896 29.3416C64.0902 29.3413 64.0909 29.3407 64.0916 29.3404C64.0918 29.3393 64.0916 29.3382 64.0916 29.3368Z" fill="black"/>
<path fill-rule="evenodd" clip-rule="evenodd" d="M32.5782 28.2923C32.6689 28.1872 32.7351 28.0245 32.7836 27.9535C32.8321 27.8831 32.864 27.8069 32.8987 27.7336C32.9326 27.6605 32.9519 27.5957 32.9843 27.531C33.0171 27.4663 33.029 27.4074 33.0357 27.3639C33.0422 27.3208 33.05 27.27 33.0596 27.2118C33.0696 27.1536 33.0746 27.0961 33.0746 27.0393C33.0746 26.9362 33.05 26.8645 33.001 26.8243C32.864 26.7147 32.7632 26.5841 32.6982 26.4323C32.6327 26.2811 32.6003 26.1185 32.6003 25.9457C32.6003 25.8023 32.6204 25.6534 32.6615 25.4982C32.7022 25.3437 32.7592 25.2041 32.8327 25.0787C32.9056 24.9537 32.9923 24.8506 33.0918 24.7687C33.1908 24.6875 33.2976 24.6465 33.4116 24.6465C33.552 24.6465 33.6695 24.6661 33.7639 24.704C33.8586 24.7428 33.9328 24.8012 33.9862 24.8817C34.0401 24.9611 34.0783 25.0638 34.1013 25.1883C34.1239 25.3137 34.1353 25.4626 34.1353 25.6358C34.1353 25.7423 34.1827 25.8413 34.2772 25.9326C34.3716 26.0247 34.4936 26.1235 34.6438 26.2297C34.7935 26.3369 34.9598 26.4548 35.1424 26.5852C35.3248 26.7147 35.5034 26.8728 35.6779 27.0591C35.8523 27.2459 36.0119 27.4649 36.1571 27.716C36.302 27.9679 36.4137 28.2663 36.4922 28.6128C36.6225 28.5266 36.7331 28.4251 36.8245 28.3081C36.9155 28.1914 36.9948 28.071 37.0617 27.946C37.128 27.8211 37.1861 27.6968 37.2349 27.5739C37.284 27.4509 37.3328 27.3413 37.3817 27.2463C37.4307 27.1516 37.4834 27.0745 37.5406 27.0147C37.5976 26.9542 37.6656 26.9245 37.7436 26.9245C37.7925 26.9245 37.8341 26.9384 37.8681 26.9671C37.9025 26.9953 37.9195 27.0377 37.9195 27.0941C37.9195 27.1906 37.896 27.3133 37.8486 27.4613C37.8012 27.6097 37.75 27.7536 37.6948 27.8935C37.6296 28.0604 37.5607 28.2108 37.4894 28.3457C37.4175 28.4806 37.3377 28.6063 37.2496 28.7226C37.162 28.8395 37.0617 28.9484 36.949 29.0502C36.8366 29.1519 36.7103 29.2491 36.5702 29.342C36.5668 29.5893 36.5255 29.8051 36.4455 29.9912C36.3654 30.1782 36.259 30.3352 36.1254 30.4633C35.9913 30.5919 35.8369 30.6884 35.6605 30.7536C35.4848 30.8186 35.2991 30.8511 35.1035 30.8511C34.973 30.8511 34.8483 30.8303 34.7294 30.7881C34.6105 30.7471 34.5052 30.6884 34.414 30.6138C34.3228 30.5387 34.2495 30.4496 34.1939 30.3465C34.1384 30.2429 34.1107 30.1313 34.1107 30.0113C34.1076 29.832 34.1671 29.6669 34.2893 29.5171C34.4116 29.3673 34.6275 29.2193 34.9372 29.0725V28.9631C34.9372 28.7596 34.859 28.5372 34.7028 28.2959C34.5461 28.0543 34.2953 27.8069 33.9496 27.5542C33.8845 27.5039 33.8202 27.4649 33.7563 27.4365C33.693 27.4081 33.632 27.3675 33.573 27.3138C33.5144 27.4775 33.3875 27.7511 33.3875 27.7511C33.3875 27.7511 33.2596 27.9869 33.1993 28.0733C33.1392 28.1601 33.081 28.2496 33.0404 28.3074C32.9203 28.479 32.4888 28.994 32.3129 29.1113C32.2907 29.1438 31.8446 29.469 31.797 29.3923C31.7496 29.3152 32.5453 28.3615 32.5782 28.2923Z" fill="black"/>
<path fill-rule="evenodd" clip-rule="evenodd" d="M39.674 25.7254C39.8009 25.7254 39.9232 25.731 40.0407 25.7425C40.1581 25.7545 40.2625 25.777 40.3537 25.8104C40.4448 25.8436 40.5175 25.8912 40.5711 25.9527C40.6252 26.0141 40.6518 26.0951 40.6518 26.195C40.6518 26.2749 40.6346 26.3572 40.6006 26.4422C40.5662 26.527 40.5215 26.6062 40.4663 26.6793C40.4106 26.7531 40.3465 26.8162 40.273 26.8694C40.1997 26.9229 40.1241 26.9576 40.0459 26.9739C39.9804 26.9908 39.8906 27.0034 39.7768 27.0118C39.6626 27.0199 39.5079 27.0276 39.3123 27.0343V27.2538C39.3123 27.3571 39.3161 27.4827 39.3246 27.6312C39.3327 27.7791 39.3465 27.9343 39.3662 28.0956C39.3857 28.2571 39.41 28.4173 39.4395 28.5754C39.4688 28.7335 39.5048 28.8767 39.547 29.0051C39.5893 29.1332 39.6391 29.2363 39.6963 29.3146C39.7531 29.3931 39.8177 29.4323 39.8892 29.4323C39.9739 29.4323 40.068 29.3894 40.1704 29.3044C40.273 29.2198 40.3767 29.1093 40.4806 28.9724C40.585 28.8359 40.6894 28.6818 40.7937 28.5102C40.8979 28.3388 40.9958 28.1671 41.087 27.9955C41.1782 27.8243 41.26 27.6598 41.3317 27.5037C41.403 27.347 41.4602 27.2143 41.5027 27.1038C41.5224 27.0474 41.5563 27.0034 41.6055 26.9716C41.6542 26.94 41.7179 26.924 41.7959 26.924C41.8449 26.924 41.8864 26.9382 41.9206 26.9669C41.9548 26.9951 41.972 27.0373 41.972 27.0941V27.1291C41.972 27.1421 41.9689 27.1573 41.9622 27.174C41.8967 27.3704 41.8154 27.5969 41.7179 27.8534C41.6198 28.11 41.506 28.3735 41.3755 28.6455C41.245 28.9164 41.1008 29.1837 40.943 29.4467C40.7848 29.7097 40.6127 29.9448 40.4272 30.1512C40.241 30.3578 40.0432 30.5247 39.8329 30.6508C39.6228 30.7773 39.4035 30.8407 39.1756 30.8407C38.9606 30.8407 38.7728 30.7972 38.6132 30.7108C38.4534 30.624 38.3157 30.5051 38.1997 30.354C38.0844 30.2024 37.9883 30.0242 37.9114 29.8189C37.8348 29.6143 37.7749 29.3931 37.7306 29.1551C37.6864 28.9164 37.6557 28.6679 37.6381 28.408C37.6198 28.1479 37.611 27.8899 37.611 27.6334V27.0391C37.3958 27.0291 37.2329 27.0012 37.122 26.954C37.0116 26.9076 36.9557 26.8178 36.9557 26.6845C36.9557 26.5209 37.0219 26.3831 37.154 26.2694C37.2856 26.1567 37.4528 26.0646 37.6551 25.9949C37.6872 25.669 37.7413 25.3706 37.8162 25.1008C37.8911 24.8312 37.9816 24.5989 38.0875 24.4043C38.1933 24.2094 38.3115 24.0578 38.4418 23.9497C38.5721 23.8415 38.7062 23.7871 38.843 23.7871C38.9243 23.7871 39.005 23.8006 39.0848 23.827C39.1651 23.8539 39.2366 23.8972 39.2998 23.957C39.3635 24.0172 39.4158 24.0977 39.4565 24.1994C39.4972 24.3012 39.5177 24.4266 39.5177 24.5764C39.5177 24.6932 39.5128 24.7922 39.5028 24.8737C39.4932 24.9553 39.4811 25.0361 39.4661 25.1161C39.4516 25.1958 39.4362 25.2833 39.4199 25.3782C39.4035 25.473 39.3874 25.5905 39.3709 25.7306C39.4362 25.7272 39.4941 25.7254 39.5446 25.7254H39.674Z" fill="black"/>
<path fill-rule="evenodd" clip-rule="evenodd" d="M43.8494 29.5618C44.0968 29.5618 44.2917 29.5054 44.4334 29.3922C44.5753 29.2787 44.6884 29.1341 44.7736 28.9575C44.6625 28.9208 44.5593 28.8702 44.4629 28.805C44.3666 28.7405 44.2835 28.6587 44.2135 28.5601C44.1435 28.4622 44.0877 28.3469 44.0474 28.2154C44.0065 28.0839 43.9862 27.9332 43.9862 27.7634C43.9862 27.4902 44.0407 27.2545 44.15 27.0569C44.2593 26.8589 44.4035 26.7161 44.5827 26.6295C44.5273 26.5763 44.458 26.5305 44.3751 26.4926C44.2917 26.4542 44.1851 26.4346 44.0548 26.4346C43.8885 26.4346 43.7343 26.4858 43.5928 26.5871C43.4511 26.6886 43.3277 26.8219 43.2234 26.9868C43.1192 27.1514 43.0376 27.3398 42.9789 27.5514C42.9205 27.7627 42.891 27.9797 42.891 28.2032C42.891 28.3801 42.9056 28.5506 42.9351 28.7155C42.9643 28.8797 43.016 29.0247 43.0893 29.1499C43.1626 29.2749 43.26 29.3746 43.3825 29.4493C43.5045 29.5246 43.6603 29.5618 43.8494 29.5618ZM45.8247 27.8435C45.8247 27.9267 45.8221 28.0059 45.8171 28.0808C45.8122 28.1557 45.8066 28.2265 45.8004 28.293C46.0055 28.2763 46.2016 28.1658 46.3893 27.9608C46.5766 27.7562 46.7407 27.4706 46.8808 27.1041C46.9002 27.0477 46.9344 27.0035 46.9832 26.9714C47.0323 26.9401 47.0958 26.9243 47.174 26.9243C47.223 26.9243 47.2643 26.9383 47.2985 26.9669C47.3329 26.9951 47.3499 27.0375 47.3499 27.0941V27.1291C47.3499 27.1426 47.3466 27.1573 47.3401 27.174C47.2456 27.4537 47.1427 27.705 47.0323 27.9287C46.9215 28.1514 46.7961 28.3411 46.6557 28.4978C46.5156 28.6548 46.3573 28.7793 46.1817 28.8727C46.0056 28.9654 45.8048 29.0223 45.58 29.0423C45.5378 29.1592 45.4848 29.285 45.4209 29.4195C45.3576 29.5548 45.281 29.6884 45.1915 29.8217C45.1017 29.9552 44.9991 30.0835 44.8833 30.2065C44.7676 30.3296 44.6357 30.4379 44.4873 30.5311C44.3389 30.624 44.1737 30.6993 43.9913 30.7557C43.8085 30.8126 43.6082 30.8408 43.3897 30.8408C42.9529 30.8408 42.5929 30.7724 42.3092 30.6355C42.0258 30.4993 41.8017 30.3204 41.6372 30.0989C41.4722 29.8776 41.3585 29.6263 41.2945 29.3446C41.2311 29.0631 41.1998 28.776 41.1998 28.4829C41.1998 28.1367 41.2507 27.7986 41.3533 27.4688C41.4561 27.1393 41.6184 26.8458 41.8401 26.5898C42.0618 26.3331 42.3459 26.1267 42.693 25.9699C43.0403 25.8136 43.4583 25.7354 43.9471 25.7354C44.1069 25.7354 44.2502 25.7638 44.3773 25.8202C44.5045 25.8768 44.6162 25.9481 44.7121 26.0326C44.8085 26.1175 44.8898 26.2072 44.9566 26.3024C45.0237 26.3976 45.0782 26.4847 45.1205 26.5647C45.2378 26.5911 45.3406 26.6435 45.4287 26.722C45.5165 26.8005 45.5898 26.897 45.6486 27.0118C45.7074 27.1264 45.7514 27.2554 45.7805 27.3991C45.8098 27.5421 45.8247 27.6903 45.8247 27.8435Z" fill="black"/>
<path fill-rule="evenodd" clip-rule="evenodd" d="M46.6703 27.6437C46.6703 27.6137 46.6756 27.5841 46.6873 27.5539C46.6989 27.5237 46.7092 27.5005 46.7192 27.484C46.7679 27.3875 46.8073 27.3022 46.8366 27.2289C46.8656 27.156 46.8868 27.0917 46.9 27.0367C46.913 26.9817 46.9213 26.9327 46.9244 26.8894C46.9275 26.8459 46.9293 26.8044 46.9293 26.7649C46.9293 26.6947 46.9219 26.6406 46.9074 26.6023C46.8927 26.5641 46.8772 26.538 46.8609 26.5247C46.7273 26.4114 46.6271 26.2811 46.5603 26.1326C46.4935 25.9847 46.4602 25.822 46.4602 25.6456C46.4602 25.5026 46.4803 25.359 46.5212 25.2157C46.5621 25.0732 46.6189 24.9437 46.6924 24.8289C46.7655 24.7141 46.8518 24.6216 46.9514 24.5514C47.0507 24.4817 47.1575 24.4468 47.2713 24.4468C47.4116 24.4468 47.5292 24.4655 47.6235 24.5038C47.7181 24.5426 47.7925 24.5963 47.8459 24.6665C47.9 24.7364 47.938 24.8181 47.9608 24.9114C47.9836 25.0046 47.9952 25.1063 47.9952 25.2157C47.9952 25.3224 47.9936 25.4 47.9901 25.4485C47.9869 25.4963 47.9854 25.5392 47.9854 25.5757V25.6905C47.9854 25.7273 47.9936 25.7638 48.0097 25.8004C48.026 25.8372 48.0535 25.8735 48.0929 25.91C48.1318 25.947 48.1926 25.9847 48.2739 26.0226C48.3553 26.0611 48.4605 26.1008 48.5893 26.1426C48.718 26.1841 48.8801 26.2285 49.0756 26.275C49.1637 26.2948 49.2721 26.3226 49.4008 26.3573C49.5296 26.3923 49.6525 26.4392 49.77 26.4974C49.8872 26.5556 49.9875 26.6296 50.0707 26.7198C50.1538 26.8093 50.1951 26.921 50.1951 27.0545C50.1951 27.2406 50.192 27.4829 50.1855 27.7811C50.1791 28.0795 50.1757 28.3966 50.1757 28.7329C50.1757 28.8295 50.177 28.9204 50.1808 29.0052C50.184 29.09 50.1951 29.164 50.2146 29.2274C50.2343 29.2905 50.2647 29.3402 50.3053 29.3774C50.3458 29.4137 50.4035 29.4324 50.4788 29.4324C50.5633 29.4324 50.6562 29.3896 50.757 29.3045C50.8583 29.2199 50.9615 29.1096 51.0675 28.9747C51.1736 28.8401 51.2785 28.6869 51.3835 28.515C51.4872 28.3438 51.5849 28.1726 51.6763 28.001C51.7679 27.8291 51.8489 27.6649 51.9213 27.5066C51.9928 27.348 52.0496 27.2158 52.092 27.1093C52.1112 27.0525 52.145 27.0076 52.1924 26.974C52.2393 26.9408 52.3037 26.9244 52.385 26.9244C52.4342 26.9244 52.4758 26.9384 52.5104 26.967C52.5442 26.9952 52.5612 27.0374 52.5612 27.094V27.1292C52.5612 27.1427 52.5583 27.1574 52.5515 27.1741C52.4865 27.3705 52.4049 27.597 52.3073 27.8539C52.2091 28.1102 52.0949 28.3736 51.9649 28.6457C51.8345 28.9168 51.6902 29.1838 51.5321 29.4469C51.3739 29.7099 51.2025 29.9449 51.0165 30.1513C50.8308 30.3579 50.6328 30.5248 50.4225 30.6509C50.2124 30.7777 49.9931 30.8408 49.7649 30.8408C49.4911 30.8408 49.2712 30.7946 49.1049 30.701C48.9384 30.6083 48.8101 30.461 48.7187 30.2614C48.6275 30.0615 48.5671 29.8037 48.5376 29.4897C48.5086 29.1746 48.4938 28.7961 48.4938 28.3531V27.6935C48.4938 27.4935 48.4831 27.3284 48.4623 27.1966C48.4409 27.0651 48.3977 26.9578 48.3325 26.8745C48.2674 26.7913 48.1727 26.7266 48.0488 26.6794C47.9248 26.6329 47.7605 26.5946 47.5551 26.5648C47.5064 26.6546 47.4606 26.773 47.4183 26.9194C47.3756 27.066 47.3292 27.209 47.2789 27.3489C47.2281 27.489 47.1705 27.6096 47.1052 27.7114C47.0399 27.8129 46.9619 27.8634 46.8705 27.8634C46.8055 27.8634 46.7559 27.8433 46.7215 27.8036C46.6873 27.7635 46.6703 27.7102 46.6703 27.6437Z" fill="black"/>
<path fill-rule="evenodd" clip-rule="evenodd" d="M52.434 24.2967C52.434 24.1505 52.4579 24.0118 52.5046 23.8821C52.5522 23.7522 52.6197 23.639 52.708 23.5427C52.7961 23.4461 52.9036 23.3694 53.0305 23.3128C53.1575 23.2562 53.3012 23.2275 53.4608 23.2275C53.5558 23.2275 53.6461 23.2454 53.7321 23.2799C53.8186 23.3151 53.8942 23.3676 53.9592 23.4375C54.0245 23.5072 54.077 23.5923 54.1159 23.6922C54.1552 23.7926 54.1751 23.9072 54.1751 24.0371C54.1751 24.2069 54.1467 24.3628 54.0913 24.5042C54.0361 24.6461 53.9614 24.7679 53.8664 24.8712C53.7719 24.9743 53.6628 25.0546 53.539 25.1108C53.4154 25.1676 53.2847 25.196 53.1477 25.196C53.0144 25.196 52.9018 25.1703 52.8108 25.1184C52.7192 25.0668 52.6461 24.9989 52.5907 24.9134C52.5348 24.8288 52.4952 24.7323 52.4709 24.624C52.4465 24.5157 52.434 24.4068 52.434 24.2967ZM52.5511 25.7854C52.5972 25.7854 52.6602 25.7902 52.7395 25.8003C52.8198 25.8105 52.9049 25.8272 52.9968 25.8504C53.0875 25.8739 53.1803 25.9052 53.2748 25.9456C53.3698 25.9851 53.4552 26.0333 53.5319 26.0902C53.6085 26.1466 53.6713 26.2131 53.7203 26.2902C53.7692 26.3665 53.7931 26.4545 53.7931 26.5546C53.7931 26.648 53.7922 26.782 53.7907 26.9568C53.7891 27.1316 53.7871 27.3233 53.7835 27.5313C53.7802 27.7393 53.7784 27.9502 53.7761 28.1631C53.7746 28.3763 53.7735 28.5664 53.7735 28.7329C53.7735 28.8294 53.7757 28.9203 53.7784 29.0051C53.782 29.0897 53.7931 29.1639 53.813 29.2271C53.8322 29.2905 53.8626 29.3405 53.9035 29.3771C53.9442 29.4136 54.0019 29.4324 54.077 29.4324C54.1615 29.4324 54.2553 29.3895 54.3577 29.3045C54.4605 29.2194 54.564 29.1089 54.6688 28.9722C54.7727 28.836 54.8771 28.6819 54.9813 28.5102C55.0859 28.3388 55.1835 28.1672 55.2747 27.996C55.3659 27.8248 55.4475 27.6603 55.5193 27.5038C55.591 27.347 55.6475 27.2142 55.6902 27.1039C55.7099 27.0475 55.7441 27.0035 55.7928 26.9717C55.8422 26.9405 55.9052 26.9241 55.9837 26.9241C56.0324 26.9241 56.0744 26.9383 56.1084 26.9665C56.1426 26.9951 56.1598 27.0378 56.1598 27.0939V27.1291C56.1598 27.1427 56.1565 27.1573 56.15 27.174C56.0847 27.3709 56.0034 27.5969 55.9052 27.8534C55.8073 28.1101 55.6938 28.374 55.5633 28.6454C55.4328 28.9165 55.2884 29.1838 55.1301 29.4468C54.9719 29.7102 54.8007 29.9448 54.6147 30.1512C54.4292 30.3578 54.2308 30.5248 54.0209 30.6506C53.8103 30.7774 53.5911 30.841 53.3633 30.841C53.0895 30.841 52.8692 30.7945 52.7029 30.7009C52.5368 30.608 52.4079 30.4609 52.3171 30.2613C52.2255 30.0614 52.1653 29.8041 52.1361 29.4892C52.1063 29.1745 52.092 28.796 52.092 28.3528V27.1842C52.092 27.1009 52.0925 27.0082 52.0945 26.9069C52.0958 26.8052 52.1017 26.7028 52.1115 26.5995C52.1215 26.4966 52.135 26.3956 52.1531 26.2972C52.1705 26.1991 52.1969 26.1123 52.2315 26.0378C52.2657 25.9627 52.3086 25.9018 52.3611 25.8549C52.4128 25.8087 52.4765 25.7854 52.5511 25.7854Z" fill="black"/>
<path fill-rule="evenodd" clip-rule="evenodd" d="M58.2519 26.9942C58.2519 26.8943 58.2268 26.8111 58.1763 26.7445C58.1263 26.6777 58.0339 26.6444 57.9001 26.6444C57.7698 26.6444 57.6538 26.6836 57.553 26.7621C57.4517 26.8399 57.3663 26.9432 57.2968 27.0718C57.2264 27.1999 57.1712 27.3479 57.1299 27.5162C57.0894 27.6847 57.0644 27.8586 57.0546 28.0383C57.2108 28.0246 57.3614 27.9889 57.5067 27.9308C57.6513 27.8726 57.7796 27.797 57.8902 27.7034C58.0015 27.6105 58.0892 27.5031 58.1544 27.3811C58.2192 27.2599 58.2519 27.1307 58.2519 26.9942ZM58.1736 29.5623C58.3889 29.5623 58.5925 29.5178 58.7854 29.4296C58.9774 29.3414 59.1564 29.2262 59.3231 29.0847C59.4892 28.9433 59.6414 28.7834 59.7802 28.605C59.9185 28.4274 60.0432 28.2477 60.1539 28.0656C60.2647 27.8841 60.36 27.7097 60.44 27.541C60.52 27.3732 60.5823 27.2272 60.6286 27.1038C60.6476 27.0474 60.6825 27.0035 60.7312 26.9717C60.7801 26.9401 60.8434 26.9241 60.9214 26.9241C60.9703 26.9241 61.0119 26.9383 61.0466 26.9669C61.0805 26.9951 61.0977 27.0373 61.0977 27.0941V27.1291C61.0977 27.1422 61.0944 27.1575 61.0879 27.174C61.0195 27.3874 60.9303 27.626 60.8215 27.8911C60.7126 28.1554 60.5835 28.4236 60.4353 28.6947C60.2869 28.9668 60.1188 29.2309 59.9315 29.4869C59.744 29.7434 59.537 29.9726 59.3106 30.1735C59.0844 30.3756 58.8372 30.5367 58.5699 30.6585C58.303 30.7801 58.0176 30.8408 57.7141 30.8408C57.2778 30.8408 56.9077 30.778 56.6046 30.6533C56.3016 30.5288 56.0555 30.361 55.8662 30.1512C55.6773 29.941 55.5403 29.701 55.4554 29.4296C55.3709 29.1583 55.3284 28.8756 55.3284 28.5829C55.3284 28.3528 55.3537 28.1216 55.404 27.8883C55.4549 27.6556 55.5305 27.432 55.6315 27.2189C55.7327 27.0057 55.8572 26.807 56.0056 26.6223C56.1538 26.4371 56.325 26.2774 56.519 26.1425C56.7128 26.0078 56.9296 25.9007 57.1692 25.8229C57.4088 25.7446 57.6687 25.7056 57.9492 25.7056C58.1119 25.7056 58.2644 25.7369 58.4061 25.8003C58.548 25.8637 58.6709 25.9474 58.7753 26.0525C58.8797 26.1576 58.9619 26.2787 59.0218 26.4172C59.0822 26.5559 59.1124 26.7012 59.1124 26.8546C59.1124 27.0041 59.0757 27.1674 59.0002 27.3441C58.9251 27.5202 58.8059 27.6901 58.6434 27.8534C58.4801 28.0165 58.2691 28.1599 58.0103 28.2829C57.7512 28.4062 57.4388 28.4877 57.0742 28.528C57.0932 28.6679 57.1299 28.801 57.1837 28.9273C57.2378 29.0541 57.3093 29.1644 57.399 29.2568C57.4888 29.3502 57.597 29.4247 57.7242 29.4795C57.8511 29.5341 58.0015 29.5623 58.1736 29.5623Z" fill="black"/>
<path fill-rule="evenodd" clip-rule="evenodd" d="M60.2617 28.1526C60.2617 28.0931 60.2755 28.0265 60.3032 27.953C60.3307 27.8799 60.3616 27.8064 60.3962 27.7333C60.4302 27.66 60.4637 27.5907 60.4959 27.526C60.5285 27.461 60.5482 27.4069 60.5547 27.3634C60.5612 27.3205 60.5697 27.2695 60.5795 27.2111C60.5889 27.1529 60.5936 27.0956 60.5936 27.039C60.5936 26.9357 60.5697 26.864 60.5205 26.8238C60.3837 26.7142 60.2831 26.5836 60.2176 26.4318C60.1524 26.2802 60.1198 26.118 60.1198 25.9452C60.1198 25.8018 60.1403 25.6525 60.1808 25.4977C60.2217 25.3432 60.2782 25.2031 60.352 25.0782C60.4248 24.9532 60.5116 24.8501 60.611 24.7683C60.7105 24.687 60.8171 24.646 60.9313 24.646C61.0712 24.646 61.1888 24.6656 61.2831 24.7035C61.3776 24.7419 61.4516 24.801 61.5055 24.881C61.5598 24.9607 61.5976 25.0635 61.6208 25.1878C61.6438 25.3132 61.6548 25.4621 61.6548 25.6353C61.6548 25.7418 61.7017 25.8408 61.7967 25.9322C61.8912 26.0242 62.0133 26.123 62.1633 26.2297C62.3132 26.3361 62.4795 26.4543 62.6614 26.5847C62.8447 26.7142 63.0228 26.8723 63.1979 27.0591C63.3713 27.2456 63.5318 27.4644 63.6764 27.7159C63.8212 27.9674 63.979 28.4855 64.0116 28.6123C64.0443 28.7393 64.093 29.2403 64.0896 29.3416C64.0825 29.5888 64.0445 29.8046 63.9651 29.9907C63.8849 30.178 63.7778 30.3347 63.6451 30.4633C63.5108 30.5916 63.3563 30.688 63.1802 30.7531C63.0043 30.8181 62.8186 30.8506 62.6228 30.8506C62.492 30.8506 62.3675 30.8301 62.2491 30.7879C62.1297 30.7466 62.0249 30.688 61.9333 30.6133C61.8421 30.5386 61.7692 30.4493 61.7131 30.3462C61.6581 30.2427 61.6302 30.131 61.6302 30.0108C61.6271 29.831 61.6867 29.6664 61.8088 29.5166C61.9315 29.3668 62.1469 29.2191 62.4565 29.072V28.9624C62.4565 28.7592 62.3787 28.5367 62.2218 28.2954C62.0656 28.054 61.8146 27.8064 61.4688 27.5537C61.404 27.5034 61.3396 27.4644 61.2759 27.436C61.2127 27.4076 61.1512 27.3672 61.0924 27.3133C61.0337 27.477 60.972 27.6223 60.9067 27.7507C60.8414 27.8788 60.7786 27.9861 60.7183 28.0728C60.6584 28.1596 60.6021 28.2261 60.55 28.2726C60.4981 28.3195 60.4521 28.3428 60.413 28.3428C60.3674 28.3428 60.3307 28.3243 60.3032 28.2875C60.2755 28.2512 60.2617 28.2063 60.2617 28.1526Z" fill="black"/>
</g>
<defs>
<clipPath id="clip0_449_2117">
<rect width="104.211" height="40" fill="white"/>
</clipPath>
</defs>
</svg>
