<svg width="196" height="196" viewBox="0 0 196 196" fill="none" xmlns="http://www.w3.org/2000/svg">
<path d="M21.9749 118.112L4.55231 121.233L3.35038 114.524C2.71979 111.004 3.9873 108.961 7.15291 108.394C8.06636 108.23 8.87305 108.264 9.57297 108.496C10.2729 108.729 10.8405 109.062 11.2759 109.496C11.7112 109.93 11.9927 110.367 12.1204 110.807C12.0715 110.353 12.1113 109.895 12.2399 109.433C12.367 108.963 12.6271 108.555 13.0201 108.208C13.4039 107.855 13.9658 107.612 14.7061 107.479L18.2378 106.847C18.6158 106.779 18.9527 106.686 19.2485 106.568C19.5444 106.45 19.7429 106.333 19.8441 106.218L20.4048 109.348C20.1172 109.602 19.5797 109.8 18.7922 109.941L15.6266 110.508C14.1698 110.769 13.586 111.707 13.8752 113.321L14.4148 116.333L21.4311 115.076L21.9749 118.112ZM5.96209 114.812L6.48899 117.753L11.9343 116.778L11.3905 113.742C11.2536 112.978 10.8749 112.384 10.2542 111.959C9.63203 111.525 8.88393 111.387 8.00985 111.544C7.15939 111.696 6.56527 112.055 6.22751 112.619C5.88974 113.183 5.80127 113.914 5.96209 114.812Z" fill="black"/>
<path d="M17.6556 88.1002L20.1704 88.263L19.4988 98.6333L1.8358 97.4894L2.50738 87.1192L5.02211 87.282L4.55603 94.4789L9.5855 94.8047L9.96549 88.9369L12.4802 89.0998L12.1002 94.9675L17.1896 95.2971L17.6556 88.1002Z" fill="black"/>
<path d="M10.4704 64.7824L9.15654 69.0236L23.6567 73.5154L22.7193 76.5415L8.21912 72.0497L6.90885 76.2794L4.50171 75.5337L8.0632 64.0367L10.4704 64.7824Z" fill="black"/>
<path d="M31.8845 56.5985C31.1227 57.811 30.1352 58.7212 28.922 59.3289C27.7063 59.9255 26.3417 60.15 24.8284 60.0023C23.315 59.8546 21.7319 59.2615 20.0791 58.2231C18.4262 57.1846 17.2061 56.0213 16.4188 54.733C15.6358 53.438 15.2581 52.1142 15.2859 50.7617C15.3069 49.405 15.6983 48.1203 16.4601 46.9078C17.2304 45.6817 18.2222 44.7648 19.4354 44.1571C20.6419 43.5451 21.9962 43.3142 23.4985 43.4645C25.0051 43.6079 26.5848 44.1989 28.2377 45.2373C29.8905 46.2757 31.1097 47.448 31.8953 48.7541C32.6851 50.0534 33.073 51.3835 33.0587 52.7445C33.0377 54.1013 32.6463 55.3859 31.8845 56.5985ZM29.6796 55.2132C30.1222 54.5087 30.3326 53.7528 30.3107 52.9454C30.2889 52.1381 29.9758 51.3131 29.3715 50.4704C28.7646 49.6168 27.8142 48.7835 26.5204 47.9706C25.2198 47.1535 24.0634 46.6632 23.0513 46.4997C22.0324 46.3319 21.1579 46.4155 20.4278 46.7505C19.6978 47.0854 19.1136 47.6017 18.6752 48.2995C18.2411 48.9904 18.0316 49.7374 18.0467 50.5405C18.0617 51.3436 18.3638 52.1711 18.9529 53.023C19.5394 53.8639 20.483 54.693 21.7836 55.5101C23.0842 56.3272 24.2473 56.8218 25.273 56.9938C26.3029 57.159 27.1863 57.0763 27.9232 56.7456C28.66 56.4149 29.2455 55.9041 29.6796 55.2132Z" fill="black"/>
<path d="M46.0841 30.6296C47.6002 32.3003 48.3025 33.9315 48.1913 35.5233C48.086 37.1096 47.2868 38.5801 45.7939 39.9349C44.3128 41.2788 42.7777 41.9264 41.1886 41.8776C39.5995 41.8288 38.047 40.969 36.5309 39.2983L28.9589 30.9537L31.305 28.8249L38.8932 37.1872C39.8501 38.2418 40.7418 38.8316 41.5682 38.9567C42.4006 39.0764 43.2286 38.7626 44.0521 38.0153C44.8874 37.2573 45.2858 36.4583 45.2473 35.6182C45.2088 34.7781 44.7111 33.8308 43.7542 32.7763L36.166 24.4139L38.5121 22.285L46.0841 30.6296Z" fill="black"/>
<path d="M56.8077 30.9988L48.5941 15.3199L54.6318 12.157C57.7995 10.4976 60.1295 11.0923 61.6219 13.9411C62.0525 14.7631 62.2623 15.5428 62.2512 16.2801C62.24 17.0175 62.0929 17.659 61.8098 18.2047C61.5267 18.7504 61.1943 19.1503 60.8127 19.4044C61.2315 19.2211 61.6805 19.1214 62.1596 19.1052C62.6459 19.0853 63.1135 19.2106 63.5623 19.4812C64.0145 19.741 64.4151 20.204 64.7641 20.8702L66.429 24.0485C66.6072 24.3886 66.7971 24.682 66.9985 24.9287C67.2 25.1754 67.3711 25.3296 67.5118 25.3913L64.695 26.867C64.3656 26.6693 64.0153 26.2161 63.6441 25.5074L62.1517 22.6586C61.4649 21.3476 60.3951 21.0726 58.9424 21.8337L56.2318 23.2536L59.5395 29.5677L56.8077 30.9988ZM55.1422 14.7345L52.4954 16.1211L55.0624 21.0214L57.7943 19.5903C58.4817 19.2302 58.9349 18.6902 59.1538 17.9704C59.3799 17.2469 59.2869 16.4918 58.8748 15.7052C58.4739 14.9399 57.9535 14.481 57.3137 14.3285C56.6739 14.176 55.95 14.3113 55.1422 14.7345Z" fill="black"/>
<path d="M95.2144 16.6134L95.4764 19.1197L85.1407 20.2L83.3007 2.5959L93.6364 1.51562L93.8984 4.02197L86.7255 4.77168L87.2494 9.78437L93.0975 9.17313L93.3595 11.6795L87.5114 12.2907L88.0415 17.3631L95.2144 16.6134Z" fill="black"/>
<path d="M106.781 19.4877L103.746 19.0092L106.503 1.52526L111.399 2.29724L114.953 18.274L117.325 3.23185L120.372 3.71223L117.615 21.1962L112.648 20.413L109.13 4.58784L106.781 19.4877Z" fill="black"/>
<path d="M156.482 20.3235L146.9 35.2057L144.236 33.4907L148.329 27.1342L142.517 23.3924L138.425 29.7489L135.761 28.0339L145.343 13.1517L148.007 14.8667L143.882 21.2736L149.693 25.0154L153.818 18.6085L156.482 20.3235Z" fill="black"/>
<path d="M152.781 40.0484L169.021 31.6031L172.357 35.3163L162.205 50.5364L160.032 48.1175L162.547 44.4705L158.857 40.3646L154.955 42.4673L152.781 40.0484ZM161.15 39.1275L164.021 42.323L169.198 34.7991L161.15 39.1275Z" fill="black"/>
<path d="M177.915 65.2012C175.905 66.2258 174.147 66.4757 172.64 65.9508C171.137 65.433 169.928 64.2761 169.012 62.48C168.104 60.6982 167.882 59.047 168.345 57.5264C168.809 56.0058 170.046 54.7331 172.056 53.7085L182.095 48.5907L183.534 51.413L173.474 56.5418C172.205 57.1885 171.402 57.8943 171.065 58.659C170.731 59.4308 170.816 60.3121 171.321 61.3028C171.834 62.3077 172.5 62.9018 173.321 63.085C174.142 63.2682 175.186 63.0364 176.455 62.3897L186.515 57.2609L187.954 60.0833L177.915 65.2012Z" fill="black"/>
<path d="M192.029 83.1659L191.045 78.8362L176.242 82.1982L175.541 79.1088L190.344 75.7469L189.363 71.4288L191.82 70.8707L194.486 82.6078L192.029 83.1659Z" fill="black"/>
</svg>
