<svg width="25" height="30" viewBox="0 0 25 30" fill="none" xmlns="http://www.w3.org/2000/svg">
<path d="M23.1912 16.5238L3.94768 29.6707C3.66569 29.8632 3.33569 29.9759 2.99342 29.9965C2.65115 30.0172 2.30968 29.945 2.00602 29.7879C1.70235 29.6307 1.44807 29.3945 1.27074 29.1049C1.0934 28.8153 0.999773 28.4834 1 28.145V1.85499C0.999773 1.51663 1.0934 1.18467 1.27074 0.895078C1.44807 0.605483 1.70235 0.369303 2.00602 0.212133C2.30968 0.054963 2.65115 -0.0172014 2.99342 0.00346001C3.33569 0.0241214 3.66569 0.136821 3.94768 0.329345L23.1912 13.4762C23.4408 13.6468 23.6447 13.8746 23.7856 14.1399C23.9264 14.4053 24 14.7004 24 15C24 15.2996 23.9264 15.5947 23.7856 15.8601C23.6447 16.1254 23.4408 16.3532 23.1912 16.5238Z" fill="black"/>
</svg>
