<svg width="30" height="30" viewBox="0 0 30 30" fill="none" xmlns="http://www.w3.org/2000/svg">
<g clip-path="url(#clip0_229_145)">
<path d="M17.8505 12.7423C18.3177 13.4367 18.5282 14.2723 18.4458 15.1052C18.3634 15.9381 17.9932 16.7163 17.399 17.3057C16.9754 17.7268 16.4548 18.0374 15.8831 18.2103C15.3114 18.3832 14.706 18.413 14.12 18.2973C13.534 18.1815 12.9854 17.9236 12.5224 17.5463C12.0594 17.169 11.6961 16.6838 11.4644 16.1333C11.1887 15.4723 11.1165 14.7442 11.257 14.0419C11.3975 13.3397 11.7443 12.6954 12.2531 12.1914C12.6342 11.813 13.0942 11.5233 13.6002 11.3431C14.1062 11.1628 14.6457 11.0964 15.1802 11.1486C15.7148 11.2008 16.2313 11.3703 16.6929 11.645C17.1544 11.9196 17.5497 12.2928 17.8505 12.7378V12.7423Z" fill="black"/>
<path d="M23.7129 10.3685C23.7056 9.68097 23.5783 8.99995 23.3366 8.35622C23.1552 7.88768 22.8773 7.46256 22.5208 7.10849C22.1628 6.75366 21.7348 6.47736 21.2641 6.29724C20.6143 6.05933 19.9286 5.93461 19.2367 5.92849C18.0853 5.87581 17.7316 5.86377 14.8252 5.86377C11.9189 5.86377 11.5682 5.87581 10.4168 5.92849C9.7244 5.93461 9.03818 6.05933 8.38791 6.29724C7.91924 6.4779 7.49339 6.75432 7.13757 7.10884C6.78175 7.46337 6.50378 7.8882 6.32141 8.35622C6.08065 9.00136 5.95236 9.68302 5.94212 10.3715C5.89095 11.5139 5.87891 11.8556 5.87891 14.7499C5.87891 17.6442 5.89245 17.9874 5.94212 19.1342C5.95105 19.8219 6.07939 20.5028 6.32141 21.1466C6.50357 21.6151 6.78202 22.0402 7.13876 22.3943C7.49551 22.7485 7.9226 23.0238 8.39243 23.2025C9.04293 23.442 9.72966 23.5683 10.4228 23.5758C11.5727 23.627 11.9174 23.639 14.8313 23.639C17.7451 23.639 18.0913 23.627 19.2427 23.5758C19.9343 23.5674 20.6194 23.4412 21.2686 23.2025C21.7393 23.0224 22.1674 22.7461 22.5253 22.3913C22.8821 22.0375 23.1601 21.6123 23.3411 21.1436C23.5811 20.4989 23.7074 19.8176 23.7144 19.1297C23.767 17.9859 23.7776 17.6442 23.7776 14.7499C23.7776 11.8556 23.7625 11.5139 23.7129 10.3685ZM19.485 17.8414C18.868 18.759 17.9936 19.4738 16.9717 19.8961C15.9498 20.3184 14.8258 20.4294 13.7411 20.215C12.6563 20.0007 11.659 19.4706 10.8745 18.6913C10.09 17.9121 9.55324 16.9184 9.33161 15.8351C9.11511 14.7556 9.22623 13.636 9.65069 12.6202C9.94642 11.8961 10.3906 11.2421 10.9547 10.7003C11.5187 10.1585 12.1901 9.74097 12.9254 9.47461C13.6608 9.20826 14.4438 9.099 15.224 9.1539C16.0042 9.20879 16.7642 9.42662 17.455 9.79332C18.1458 10.16 18.7521 10.6675 19.2347 11.2829C19.7173 11.8984 20.0656 12.6081 20.257 13.3665C20.4484 14.1248 20.4788 14.9148 20.346 15.6856C20.2133 16.4563 19.9205 17.1907 19.4865 17.8414H19.485ZM21.7427 9.68823C21.598 9.90234 21.3933 10.0689 21.1542 10.1669C20.9158 10.2638 20.6543 10.2894 20.4016 10.2406C20.1482 10.1908 19.9152 10.0673 19.7319 9.8854C19.5491 9.70399 19.4244 9.47229 19.3738 9.2198C19.3231 8.96732 19.3488 8.70547 19.4474 8.46759C19.5824 8.14847 19.8379 7.89557 20.1584 7.76393C20.4789 7.63229 20.8384 7.63257 21.1587 7.76471C21.3981 7.86195 21.603 8.02855 21.747 8.24311C21.891 8.45767 21.9676 8.71038 21.9669 8.96879C21.9645 9.22566 21.8859 9.47602 21.7412 9.68823H21.7427Z" fill="black"/>
<path d="M22.727 0H6.77296C4.97666 0 3.25393 0.713578 1.98375 1.98375C0.713578 3.25393 0 4.97666 0 6.77296L0 22.727C0 23.6165 0.175188 24.4972 0.515561 25.3189C0.855934 26.1407 1.35483 26.8873 1.98375 27.5162C3.25393 28.7864 4.97666 29.5 6.77296 29.5H22.727C23.6165 29.5 24.4972 29.3248 25.3189 28.9844C26.1407 28.6441 26.8873 28.1452 27.5162 27.5162C28.1452 26.8873 28.6441 26.1407 28.9844 25.3189C29.3248 24.4972 29.5 23.6165 29.5 22.727V6.77296C29.5 5.88352 29.3248 5.00279 28.9844 4.18106C28.6441 3.35933 28.1452 2.61268 27.5162 1.98375C26.8873 1.35483 26.1407 0.855934 25.3189 0.515561C24.4972 0.175188 23.6165 0 22.727 0V0ZM25.6725 19.2186C25.6551 20.1177 25.4836 21.0071 25.1653 21.8481C24.8839 22.5697 24.4546 23.2245 23.9051 23.7704C23.3556 24.3163 22.698 24.7412 21.9745 25.0178C21.1262 25.3338 20.2306 25.5038 19.3255 25.5205C18.1621 25.5747 17.7888 25.5867 14.8253 25.5867C11.8617 25.5867 11.4915 25.5747 10.3265 25.5205C9.42107 25.5028 8.52507 25.3328 7.67602 25.0178C6.94892 24.7464 6.28952 24.3201 5.74347 23.7686C5.18763 23.2287 4.75752 22.573 4.4837 21.8481C4.16592 21.007 3.99486 20.1176 3.97798 19.2186C3.92531 18.0612 3.91327 17.694 3.91327 14.75C3.91327 11.806 3.92531 11.4388 3.981 10.2829C3.99773 9.3834 4.16878 8.4935 4.48671 7.65194C4.76088 6.92722 5.19094 6.27159 5.74648 5.73143C6.29153 5.18011 6.94991 4.75386 7.67602 4.48219C8.52459 4.16732 9.42007 3.99738 10.325 3.97949C11.4899 3.92531 11.8617 3.91327 14.8253 3.91327C17.7888 3.91327 18.1621 3.92681 19.3255 3.97949C20.2306 3.99623 21.1262 4.16621 21.9745 4.48219C22.6979 4.75899 23.3554 5.18395 23.9049 5.72982C24.4544 6.27568 24.8837 6.93039 25.1653 7.65194C25.483 8.49362 25.6545 9.3834 25.6725 10.2829C25.7252 11.4388 25.7372 11.8075 25.7372 14.75C25.7372 17.6925 25.7252 18.0612 25.6725 19.2186Z" fill="black"/>
</g>
<defs>
<clipPath id="clip0_229_145">
<rect width="29.5" height="29.5" fill="white"/>
</clipPath>
</defs>
</svg>
