<svg width="18" height="16" viewBox="0 0 18 16" fill="none" xmlns="http://www.w3.org/2000/svg">
<path d="M0.900431 15.9999C0.661621 15.9999 0.432593 15.9063 0.26373 15.7396C0.0948665 15.5729 0 15.3468 0 15.111V7.99996C0 7.76421 0.0948665 7.53812 0.26373 7.37142C0.432593 7.20472 0.661621 7.11107 0.900431 7.11107H3.60172V15.9999H0.900431ZM16.1618 6.22219H10.9654V1.77777C10.9654 0 8.19572 0 8.19572 0C8.19572 0 8.19572 3.55554 7.27188 4.44442C6.77124 4.92709 6.00497 6.53152 5.40258 7.11107V15.9999H14.9868C15.4144 16.004 15.83 15.8603 16.1617 15.5937C16.4934 15.3272 16.7202 14.9546 16.8029 14.5404L17.9735 8.31818C18.0189 8.05901 18.0059 7.79315 17.9354 7.5395C17.865 7.28585 17.7388 7.05063 17.5658 6.85055C17.3929 6.65047 17.1775 6.49045 16.9348 6.38185C16.6921 6.27325 16.4282 6.21874 16.1618 6.22219Z" fill="black"/>
</svg>
