<svg width="186" height="40" viewBox="0 0 186 40" fill="none" xmlns="http://www.w3.org/2000/svg">
<g clip-path="url(#clip0_265_5216)">
<path d="M0 26.3284V4.27002H23.266C28.8372 4.27002 33.2789 6.04727 33.2789 12.3895C33.2789 17.4067 30.0748 19.7659 25.3367 20.285L24.7439 20.3479L26.346 21.1579L33.315 26.3284H22.2126L15.0915 20.8236H8.88346V26.3284H0ZM8.88346 14.3555H22.2647C23.5183 14.3555 24.047 14.0331 24.047 13.0619C24.047 11.9295 23.5183 11.7015 22.2647 11.7015H8.88346V14.3555Z" fill="black"/>
<path d="M81.0526 17.0884L74.9687 16.7424L70.0704 15.1696L73.0783 6.01592L78.0367 7.58871L83.1112 10.8326L81.5853 5.05652V0H91.3899V5.11157L89.8559 10.8483L94.9305 7.60444L99.8288 6.03165L102.837 15.1853L97.9423 16.7581L91.8625 17.1041L96.5966 20.8552L99.6646 24.9681L91.6983 30.5908L88.6864 26.474L86.5036 20.9142L84.2607 26.533L81.2528 30.5908L73.3426 24.9681L76.3345 20.7844L81.0526 17.0884Z" fill="black"/>
<path d="M104.831 11.7015V4.27002H140.001V11.7015H126.884V26.3284H117.984V11.7015H104.831Z" fill="black"/>
<path d="M159.205 26.7649C153.242 26.7649 146.617 25.9235 142.384 24.8894L143.633 17.8983C149.533 19.3045 155.585 20.0003 161.656 19.9705C164.917 19.9705 165.509 19.9705 165.509 19.42C165.509 18.9324 165.213 18.9678 164.356 18.9324L152.26 18.5392C144.25 18.2797 141.979 15.4644 141.979 11.324C141.979 6.01587 146.954 3.81396 157.599 3.81396C162.683 3.9041 167.747 4.45694 172.727 5.4654L171.313 11.9689C166.087 11.0398 160.784 10.5883 155.473 10.6202C150.859 10.6202 150.398 10.5219 150.398 11.1039C150.398 11.5875 150.662 11.5875 151.848 11.6229L163.943 12.0436C171.197 12.2992 173.932 15.2128 173.932 19.6795C173.94 24.5316 170.544 26.7649 159.205 26.7649Z" fill="black"/>
<path d="M46.2997 17.0884L40.2198 16.7424L35.3215 15.1696L38.3334 6.01592L43.2878 7.58871L48.3624 10.8326L46.8284 5.05652V0H56.625V5.11157L55.091 10.8483L60.1496 7.58871L65.0479 6.01592L68.0598 15.1696L63.1614 16.7424L57.0816 17.0884L61.8037 20.8552L64.8716 24.9681L56.9054 30.5908L53.8935 26.474L51.7387 20.9142L49.4958 26.533L46.4879 30.5908L38.5777 24.9681L41.5776 20.7844L46.2997 17.0884Z" fill="#FA7921"/>
<path d="M64.8877 32.5566H38.5096V39.9999H64.8877V32.5566Z" fill="#FA7921"/>
<path d="M184.856 2.81117C184.382 1.7044 183.488 0.823432 182.364 0.355923C181.788 0.120946 181.171 0 180.547 0C179.924 0 179.307 0.120946 178.731 0.355923C177.606 0.822336 176.71 1.70355 176.236 2.81117C175.998 3.37797 175.875 3.98552 175.875 4.59909C175.875 5.21266 175.998 5.82021 176.236 6.387C176.711 7.49324 177.606 8.37322 178.731 8.83948C179.307 9.07446 179.924 9.1954 180.547 9.1954C181.171 9.1954 181.788 9.07446 182.364 8.83948C183.487 8.37188 184.381 7.49222 184.856 6.387C185.094 5.82021 185.217 5.21266 185.217 4.59909C185.217 3.98552 185.094 3.37797 184.856 2.81117ZM183.525 6.30359C183.224 6.80827 182.797 7.22927 182.285 7.52704C181.758 7.82568 181.16 7.98285 180.552 7.98285C179.943 7.98285 179.346 7.82568 178.819 7.52704C178.304 7.23022 177.875 6.80911 177.573 6.30359C177.271 5.78463 177.112 5.19705 177.112 4.59909C177.112 4.00113 177.271 3.41355 177.573 2.89459C177.875 2.3882 178.304 1.96616 178.819 1.66836C179.345 1.36967 179.941 1.21244 180.549 1.21244C181.156 1.21244 181.753 1.36967 182.279 1.66836C182.792 1.96788 183.219 2.38959 183.522 2.89459C183.825 3.41328 183.984 4.00096 183.984 4.59909C183.984 5.19721 183.825 5.7849 183.522 6.30359H183.525Z" fill="black"/>
<path d="M181.824 4.98191C182.018 4.87651 182.182 4.72297 182.301 4.53571C182.447 4.30056 182.521 4.02678 182.513 3.74912C182.521 3.47349 182.451 3.20132 182.31 2.9654C182.179 2.75197 181.991 2.58043 181.768 2.47056C181.534 2.35472 181.277 2.29595 181.017 2.29894H178.911V6.66378H180.04V5.1993H180.757L181.423 6.66665H182.648L181.824 4.98191ZM180.032 3.13987H180.737C180.888 3.13669 181.035 3.18507 181.155 3.27717C181.218 3.33618 181.266 3.4088 181.297 3.48956C181.328 3.57032 181.34 3.65712 181.333 3.7434C181.339 3.83047 181.327 3.91789 181.296 3.99945C181.265 4.08101 181.217 4.15473 181.155 4.21535C181.039 4.32074 180.888 4.37792 180.732 4.37553H180.032V3.13987Z" fill="black"/>
</g>
<defs>
<clipPath id="clip0_265_5216">
<rect width="185.217" height="40" fill="white"/>
</clipPath>
</defs>
</svg>
