<svg width="29" height="30" viewBox="0 0 29 30" fill="none" xmlns="http://www.w3.org/2000/svg">
<path d="M14.5 0C6.49161 0 0 6.71546 0 15C0 23.2845 6.49161 30 14.5 30C22.5084 30 29 23.2845 29 15C29 6.71648 22.5084 0.00102354 14.5 0ZM21.1499 21.6336C20.8897 22.0757 20.3326 22.2139 19.9072 21.9447C16.5026 19.7922 12.2164 19.306 7.16936 20.4985C6.68256 20.6141 6.19775 20.2989 6.08693 19.7953C5.97513 19.2917 6.27888 18.7902 6.76667 18.6755C12.2896 17.3705 17.028 17.9324 20.8501 20.348C21.2756 20.6192 21.4111 21.1935 21.1499 21.6336ZM22.9239 17.5507C22.5964 18.1013 21.8999 18.2733 21.3686 17.9355C17.4722 15.4575 11.5297 14.74 6.92003 16.1873C6.32242 16.3746 5.69116 16.0256 5.50911 15.4084C5.32903 14.7902 5.66643 14.1382 6.26305 13.9498C11.5288 12.2968 18.0758 13.0972 22.5509 15.9427C23.0832 16.2815 23.2514 17.001 22.9239 17.5507ZM23.0763 13.2968C18.4023 10.4258 10.6927 10.1617 6.2304 11.5619C5.51406 11.7871 4.75616 11.3685 4.53947 10.6274C4.32279 9.88639 4.72648 9.10235 5.44381 8.87718C10.5661 7.26919 19.08 7.57933 24.4605 10.8833C25.1046 11.2794 25.3164 12.1402 24.9345 12.8055C24.5535 13.4729 23.7194 13.6929 23.0763 13.2968Z" fill="black"/>
</svg>
